<?xml version="1.0" encoding="UTF-8" standalone="no"?>
<!-- Created with Inkscape (http://www.inkscape.org/) -->

<svg
   version="1.1"
   id="svg2"
   width="313.33334"
   height="177.33333"
   viewBox="0 0 313.33334 177.33333"
   xmlns="http://www.w3.org/2000/svg"
   xmlns:svg="http://www.w3.org/2000/svg">
  <defs
     id="defs6" />
  <g
     id="g8"
     transform="matrix(1.3333333,0,0,-1.3333333,0,177.33333)">
    <g
       id="g10"
       transform="scale(0.1)">
      <path
         d="M 149.176,446.211 C 1003.21,554.113 1192.2,232.887 2216.91,446.246 V 169.602 C 1190.24,-37.2891 1005.17,274.051 149.176,161.02 v 285.191"
         style="fill:#e9e8e8;fill-opacity:1;fill-rule:evenodd;stroke:none"
         id="path12" />
      <path
         d="M 149.176,446.211 C 1003.21,554.113 1192.2,232.887 2216.91,446.246 V 169.602 C 1190.24,-37.2891 1005.17,274.051 149.176,161.02 Z"
         style="fill:none;stroke:#231f20;stroke-width:5.0003;stroke-linecap:butt;stroke-linejoin:miter;stroke-miterlimit:2.61313;stroke-dasharray:none;stroke-opacity:1"
         id="path14" />
      <path
         d="M 125.879,813.785 124.91,1090.15 264.449,1227 2243.01,1225.97 V 951.59 L 2105.47,813.227 125.879,813.785"
         style="fill:#e9e8e8;fill-opacity:1;fill-rule:evenodd;stroke:none"
         id="path16" />
      <path
         d="M 125.879,813.785 124.91,1090.15 264.449,1227 2243.01,1225.97 V 951.59 L 2105.47,813.227 Z"
         style="fill:none;stroke:#231f20;stroke-width:5.0003;stroke-linecap:butt;stroke-linejoin:miter;stroke-miterlimit:2.61313;stroke-dasharray:none;stroke-opacity:1"
         id="path18" />
      <path
         d="m 1146.68,1089.75 136.59,137.25 -0.58,-276.828 -136.95,-136.984 0.94,276.562"
         style="fill:#fffccc;fill-opacity:1;fill-rule:evenodd;stroke:none"
         id="path20" />
      <path
         d="m 1146.15,813.785 136.2,135.649 0.92,277.566"
         style="fill:none;stroke:#ed1c24;stroke-width:2.829;stroke-linecap:butt;stroke-linejoin:miter;stroke-miterlimit:2.61313;stroke-dasharray:2.829, 2.829;stroke-dashoffset:0;stroke-opacity:1"
         id="path22" />
      <path
         d="m 942.691,813.785 202.099,0.34 2.82,277.505 135.66,135.37 H 1079.8 L 942.691,1090.87 V 813.785"
         style="fill:#fffccc;fill-opacity:1;fill-rule:evenodd;stroke:none"
         id="path24" />
      <g
         id="g26"
         transform="scale(10)">
        <text
           xml:space="preserve"
           transform="matrix(1,0,0,-1,125.86,128.533)"
           style="font-style:italic;font-variant:normal;font-weight:normal;font-size:7.99981px;font-family:Calibri;-inkscape-font-specification:Calibri-NormalItalic;writing-mode:lr-tb;fill:#ed1c24;fill-opacity:1;fill-rule:nonzero;stroke:none"
           id="text30"><tspan
             x="0"
             y="0"
             id="tspan28">u</tspan></text>
        <text
           xml:space="preserve"
           transform="matrix(1,0,0,-1,129.97328,126.93339)"
           style="font-style:italic;font-variant:normal;font-weight:normal;font-size:3.9999px;font-family:Calibri;-inkscape-font-specification:Calibri-NormalItalic;writing-mode:lr-tb;fill:#ed1c24;fill-opacity:1;fill-rule:nonzero;stroke:none"
           id="text34"><tspan
             x="0"
             y="0"
             id="tspan32">x</tspan></text>
        <text
           xml:space="preserve"
           transform="matrix(1,0,0,-1,114.52718,47.81659)"
           style="font-style:italic;font-variant:normal;font-weight:normal;font-size:7.99981px;font-family:Calibri;-inkscape-font-specification:Calibri-NormalItalic;writing-mode:lr-tb;fill:#ed1c24;fill-opacity:1;fill-rule:nonzero;stroke:none"
           id="text38"><tspan
             x="0"
             y="0"
             id="tspan36">u</tspan></text>
        <text
           xml:space="preserve"
           transform="matrix(1,0,0,-1,118.64046,46.21659)"
           style="font-style:italic;font-variant:normal;font-weight:normal;font-size:3.9999px;font-family:Calibri;-inkscape-font-specification:Calibri-NormalItalic;writing-mode:lr-tb;fill:#ed1c24;fill-opacity:1;fill-rule:nonzero;stroke:none"
           id="text42"><tspan
             x="0"
             y="0"
             id="tspan40">y</tspan></text>
      </g>
      <g
         id="g44"
         transform="scale(10)">
        <text
           xml:space="preserve"
           transform="matrix(1,0,0,-1,92.3551,72.3375)"
           style="font-style:italic;font-variant:normal;font-weight:normal;font-size:7.99981px;font-family:Calibri;-inkscape-font-specification:Calibri-NormalItalic;writing-mode:lr-tb;fill:#231f20;fill-opacity:1;fill-rule:nonzero;stroke:none"
           id="text58"><tspan
             x="0"
             y="0"
             id="tspan46">x</tspan><tspan
             x="-65.250397"
             y="17.995701"
             id="tspan48">x</tspan><tspan
             x="-91.777397"
             y="-6.0043001"
             id="tspan50">y</tspan><tspan
             x="5.0847001"
             y="70.408203"
             id="tspan52">x</tspan><tspan
             x="95.726501 98.987442 103.09135 109.41919 113.5311 116.27503 120.09894 123.21087 126.32279 128.16275 132.26665 136.37856 140.49045"
             y="5.7168002"
             id="tspan54">compressional</tspan><tspan
             x="117.3589 120.47083 124.58273 128.40663 132.51854"
             y="71.4328"
             id="tspan56">shear</tspan></text>
        <text
           xml:space="preserve"
           transform="matrix(0.958735,0.284301,0.284301,-0.958735,216.412,99.5859)"
           style="font-style:italic;font-variant:normal;font-weight:normal;font-size:8.00001px;font-family:Calibri;-inkscape-font-specification:Calibri-NormalItalic;writing-mode:lr-tb;fill:#231f20;fill-opacity:1;fill-rule:nonzero;stroke:none"
           id="text62"><tspan
             x="0"
             y="0"
             id="tspan60">A</tspan></text>
        <text
           xml:space="preserve"
           transform="matrix(1,0,0,-1,108.389,72.3855)"
           style="font-style:italic;font-variant:normal;font-weight:normal;font-size:7.99981px;font-family:Calibri;-inkscape-font-specification:Calibri-NormalItalic;writing-mode:lr-tb;fill:#231f20;fill-opacity:1;fill-rule:nonzero;stroke:none"
           id="text68"><tspan
             x="0 4.2652345 9.0492249 13.161127"
             y="0"
             id="tspan64">x+dx</tspan><tspan
             x="3.38398 7.6492147 12.433205 16.545107"
             y="70.4086"
             id="tspan66">x+dx</tspan></text>
      </g>
      <g
         id="g70"
         transform="scale(10)">
        <text
           xml:space="preserve"
           transform="matrix(1,0,0,-1,139.328,98.6375)"
           style="font-style:italic;font-variant:normal;font-weight:normal;font-size:7.99981px;font-family:Calibri;-inkscape-font-specification:Calibri-NormalItalic;writing-mode:lr-tb;fill:#2e3192;fill-opacity:1;fill-rule:nonzero;stroke:none"
           id="text80"><tspan
             x="0 3.6799126 6.1038551 10.366405 15.150396 19.262299 22.726215"
             y="0"
             id="tspan72">F(x+dx)</tspan><tspan
             x="-7.77461 -4.0946975 -1.670755 2.5917957 7.3757863 11.487688 14.951606"
             y="80.172302"
             id="tspan74">F(x+dx)</tspan><tspan
             x="-68.854309 -65.1744 -62.353134 -58.487896"
             y="0.2789"
             id="tspan76">F(x)</tspan><tspan
             x="-64.057831 -60.377918 -57.556656 -53.691418"
             y="68.428902"
             id="tspan78">F(x)</tspan></text>
      </g>
      <path
         d="m 1071.64,1302.97 h 130.58"
         style="fill:none;stroke:#ed1c24;stroke-width:14.1676;stroke-linecap:butt;stroke-linejoin:miter;stroke-miterlimit:2.61313;stroke-dasharray:none;stroke-opacity:1"
         id="path82" />
      <path
         d="m 1238.46,1302.97 -36.73,18.36 v -36.72 z"
         style="fill:#ed1c24;fill-opacity:1;fill-rule:evenodd;stroke:none"
         id="path84" />
      <path
         d="m 1226.35,1010.42 h 107.42"
         style="fill:none;stroke:#2e3192;stroke-width:14.1676;stroke-linecap:butt;stroke-linejoin:miter;stroke-miterlimit:2.61313;stroke-dasharray:none;stroke-opacity:1"
         id="path86" />
      <path
         d="m 1370,1010.42 -36.72,18.36 v -36.717 z"
         style="fill:#2e3192;fill-opacity:1;fill-rule:evenodd;stroke:none"
         id="path88" />
      <path
         d="m 1261.76,309.801 v -83.18"
         style="fill:none;stroke:#2e3192;stroke-width:14.1676;stroke-linecap:butt;stroke-linejoin:miter;stroke-miterlimit:2.61313;stroke-dasharray:none;stroke-opacity:1"
         id="path90" />
      <path
         d="m 1261.76,190.383 18.36,36.722 h -36.73 z"
         style="fill:#2e3192;fill-opacity:1;fill-rule:evenodd;stroke:none"
         id="path92" />
      <path
         d="m 928.922,233.516 v 83.179"
         style="fill:none;stroke:#2e3192;stroke-width:14.1676;stroke-linecap:butt;stroke-linejoin:miter;stroke-miterlimit:2.61313;stroke-dasharray:none;stroke-opacity:1"
         id="path94" />
      <path
         d="m 928.922,352.934 -18.359,-36.723 h 36.718 z"
         style="fill:#2e3192;fill-opacity:1;fill-rule:evenodd;stroke:none"
         id="path96" />
      <path
         d="M 1008.2,1009.57 H 886.039"
         style="fill:none;stroke:#2e3192;stroke-width:14.1676;stroke-linecap:butt;stroke-linejoin:miter;stroke-miterlimit:2.61313;stroke-dasharray:none;stroke-opacity:1"
         id="path98" />
      <path
         d="m 849.801,1009.57 36.722,-18.355 v 36.715 z"
         style="fill:#2e3192;fill-opacity:1;fill-rule:evenodd;stroke:none"
         id="path100" />
      <path
         d="M 2105.26,813.012 2243.01,951.59 V 1227"
         style="fill:none;stroke:#231f20;stroke-width:5.0003;stroke-linecap:butt;stroke-linejoin:miter;stroke-miterlimit:2.61313;stroke-dasharray:none;stroke-opacity:1"
         id="path102" />
      <path
         d="M 942.691,813.785 V 1090.87 L 1079.8,1227"
         style="fill:none;stroke:#ed1c24;stroke-width:2.829;stroke-linecap:butt;stroke-linejoin:miter;stroke-miterlimit:2.61313;stroke-dasharray:none;stroke-opacity:1"
         id="path104" />
      <path
         d="m 1145.21,814.656 v 277.084 l 137.12,136.13"
         style="fill:none;stroke:#ed1c24;stroke-width:2.829;stroke-linecap:butt;stroke-linejoin:miter;stroke-miterlimit:2.61313;stroke-dasharray:none;stroke-opacity:1"
         id="path106" />
      <path
         d="M 2243.01,951.59 264.602,948"
         style="fill:none;stroke:#231f20;stroke-width:5.0003;stroke-linecap:butt;stroke-linejoin:miter;stroke-miterlimit:2.61313;stroke-dasharray:5.0003, 5.0003;stroke-dashoffset:0;stroke-opacity:1"
         id="path108" />
      <path
         d="M 942.691,813.785 1078.19,949.32 1079.8,1227"
         style="fill:none;stroke:#ed1c24;stroke-width:2.829;stroke-linecap:butt;stroke-linejoin:miter;stroke-miterlimit:2.61313;stroke-dasharray:2.829, 2.829;stroke-dashoffset:0;stroke-opacity:1"
         id="path110" />
      <path
         d="M 124.828,1090.07 264.449,1227 H 2244.05 l -138.19,-136.93 z"
         style="fill:none;stroke:#231f20;stroke-width:5.0003;stroke-linecap:butt;stroke-linejoin:miter;stroke-miterlimit:2.61313;stroke-dasharray:none;stroke-opacity:1"
         id="path112" />
      <path
         d="m 125.59,1090.87 h 1980 V 813.785 h -1980 z"
         style="fill:none;stroke:#231f20;stroke-width:5.0003;stroke-linecap:butt;stroke-linejoin:miter;stroke-miterlimit:2.61313;stroke-dasharray:none;stroke-opacity:1"
         id="path114" />
      <path
         d="M 264.629,1227 V 948.027 l -139.102,-134.8"
         style="fill:none;stroke:#231f20;stroke-width:5.0003;stroke-linecap:butt;stroke-linejoin:miter;stroke-miterlimit:2.61313;stroke-dasharray:5.0003, 5.0003;stroke-dashoffset:0;stroke-opacity:1"
         id="path116" />
      <path
         d="M 22.3828,727.949 V 561.563 H 221.559"
         style="fill:none;stroke:#231f20;stroke-width:5.6693;stroke-linecap:butt;stroke-linejoin:miter;stroke-miterlimit:2.61313;stroke-dasharray:none;stroke-opacity:1"
         id="path118" />
      <path
         d="M 22.3828,753.734 35.4453,727.605 H 9.31641 Z"
         style="fill:#231f20;fill-opacity:1;fill-rule:evenodd;stroke:none"
         id="path120" />
      <path
         d="m 247.34,561.563 -26.125,13.066 v -26.133 z"
         style="fill:#231f20;fill-opacity:1;fill-rule:evenodd;stroke:none"
         id="path122" />
      <path
         d="M 992.371,425.313 1198.36,395.934 V 119.949 c -68.9,8.528 -137.58,17.703 -205.989,27.696 v 277.668"
         style="fill:#fffccc;fill-opacity:1;fill-rule:evenodd;stroke:none"
         id="path124" />
      <path
         d="M 992.371,425.313 1198.36,395.934 V 119.949 c -68.9,8.528 -137.58,17.703 -205.989,27.696 z"
         style="fill:none;stroke:#ed1c24;stroke-width:2.829;stroke-linecap:butt;stroke-linejoin:miter;stroke-miterlimit:2.61313;stroke-dasharray:none;stroke-opacity:1"
         id="path126" />
      <path
         d="M 149.176,446.211 C 1003.21,554.113 1192.2,232.887 2216.91,446.246 V 169.602 C 1190.24,-37.2891 1005.17,274.051 149.176,161.02 Z"
         style="fill:none;stroke:#231f20;stroke-width:5.0003;stroke-linecap:butt;stroke-linejoin:miter;stroke-miterlimit:2.61313;stroke-dasharray:none;stroke-opacity:1"
         id="path128" />
      <path
         d="M 1098,354.246 V 484.824"
         style="fill:none;stroke:#ed1c24;stroke-width:14.1676;stroke-linecap:butt;stroke-linejoin:miter;stroke-miterlimit:2.61313;stroke-dasharray:none;stroke-opacity:1"
         id="path130" />
      <path
         d="m 1098,521.063 -18.36,-36.723 h 36.72 z"
         style="fill:#ed1c24;fill-opacity:1;fill-rule:evenodd;stroke:none"
         id="path132" />
    </g>
  </g>
</svg>
