<?xml version="1.0" encoding="UTF-8" standalone="no"?>
<!-- Created with Inkscape (http://www.inkscape.org/) -->

<svg
   version="1.1"
   id="svg2"
   width="229.33333"
   height="150.66667"
   viewBox="0 0 229.33333 150.66667"
   xmlns="http://www.w3.org/2000/svg"
   xmlns:svg="http://www.w3.org/2000/svg">
  <defs
     id="defs6" />
  <g
     id="g8"
     transform="matrix(1.3333333,0,0,-1.3333333,0,150.66667)">
    <g
       id="g10"
       transform="scale(0.1)">
      <path
         d="M 8.33984,1128.07 H 1714.59 V 6.8125 H 8.33984 V 1128.07"
         style="fill:#fbcbbb;fill-opacity:1;fill-rule:evenodd;stroke:none"
         id="path12" />
      <path
         d="M 8.33984,1128.07 H 1714.59 V 6.8125 H 8.33984 Z"
         style="fill:none;stroke:#231f20;stroke-width:2.829;stroke-linecap:butt;stroke-linejoin:miter;stroke-miterlimit:2.61313;stroke-dasharray:none;stroke-opacity:1"
         id="path14" />
      <path
         d="m 314.492,463.313 c 125.297,0 226.871,-101.579 226.871,-226.875 C 541.363,111.141 439.789,9.5625 314.492,9.5625 189.195,9.5625 87.6172,111.141 87.6172,236.438 c 0,125.296 101.5778,226.875 226.8748,226.875"
         style="fill:#fffccc;fill-opacity:1;fill-rule:evenodd;stroke:none"
         id="path16" />
      <path
         d="m 314.492,463.313 c 125.297,0 226.871,-101.579 226.871,-226.875 C 541.363,111.141 439.789,9.5625 314.492,9.5625 189.195,9.5625 87.6172,111.141 87.6172,236.438 c 0,125.296 101.5778,226.875 226.8748,226.875 z"
         style="fill:none;stroke:#231f20;stroke-width:5.0003;stroke-linecap:butt;stroke-linejoin:miter;stroke-miterlimit:2.61313;stroke-dasharray:none;stroke-opacity:1"
         id="path18" />
      <path
         d="m 892.398,1125.22 c 120.882,0 218.872,-97.99 218.872,-218.868 0,-120.875 -97.99,-218.868 -218.872,-218.868 -120.875,0 -218.867,97.993 -218.867,218.868 0,120.878 97.992,218.868 218.867,218.868"
         style="fill:#fffccc;fill-opacity:1;fill-rule:evenodd;stroke:none"
         id="path20" />
      <path
         d="m 892.398,1125.22 c 120.882,0 218.872,-97.99 218.872,-218.868 0,-120.875 -97.99,-218.868 -218.872,-218.868 -120.875,0 -218.867,97.993 -218.867,218.868 0,120.878 97.992,218.868 218.867,218.868 z"
         style="fill:none;stroke:#231f20;stroke-width:5.0003;stroke-linecap:butt;stroke-linejoin:miter;stroke-miterlimit:2.61313;stroke-dasharray:none;stroke-opacity:1"
         id="path22" />
      <path
         d="m 1369.6,405.215 c 109.5,0 198.27,-88.77 198.27,-198.274 0,-109.4996 -88.77,-198.26912 -198.27,-198.26912 -109.51,0 -198.28,88.76952 -198.28,198.26912 0,109.504 88.77,198.274 198.28,198.274"
         style="fill:#fffccc;fill-opacity:1;fill-rule:evenodd;stroke:none"
         id="path24" />
      <path
         d="m 1369.6,405.215 c 109.5,0 198.27,-88.77 198.27,-198.274 0,-109.4996 -88.77,-198.26912 -198.27,-198.26912 -109.51,0 -198.28,88.76952 -198.28,198.26912 0,109.504 88.77,198.274 198.28,198.274 z"
         style="fill:none;stroke:#231f20;stroke-width:5.0003;stroke-linecap:butt;stroke-linejoin:miter;stroke-miterlimit:2.61313;stroke-dasharray:none;stroke-opacity:1"
         id="path26" />
      <path
         d="m 1396.97,1037.05 c 174.17,0 315.37,-141.195 315.37,-315.362 0,-174.172 -141.2,-315.36 -315.37,-315.36 -174.17,0 -315.36,141.188 -315.36,315.36 0,174.167 141.19,315.362 315.36,315.362"
         style="fill:#e9e8e8;fill-opacity:1;fill-rule:evenodd;stroke:none"
         id="path28" />
      <path
         d="m 1396.97,1037.05 c 174.17,0 315.37,-141.195 315.37,-315.362 0,-174.172 -141.2,-315.36 -315.37,-315.36 -174.17,0 -315.36,141.188 -315.36,315.36 0,174.167 141.19,315.362 315.36,315.362 z"
         style="fill:none;stroke:#231f20;stroke-width:5.0003;stroke-linecap:butt;stroke-linejoin:miter;stroke-miterlimit:2.61313;stroke-dasharray:none;stroke-opacity:1"
         id="path30" />
      <path
         d="m 351.004,1123.4 c 183.035,0 331.418,-148.377 331.418,-331.416 0,-183.035 -148.383,-331.418 -331.418,-331.418 -183.035,0 -331.4181,148.383 -331.4181,331.418 0,183.039 148.3831,331.416 331.4181,331.416"
         style="fill:#e9e8e8;fill-opacity:1;fill-rule:evenodd;stroke:none"
         id="path32" />
      <path
         d="m 351.004,1123.4 c 183.035,0 331.418,-148.377 331.418,-331.416 0,-183.035 -148.383,-331.418 -331.418,-331.418 -183.035,0 -331.4181,148.383 -331.4181,331.418 0,183.039 148.3831,331.416 331.4181,331.416 z"
         style="fill:none;stroke:#231f20;stroke-width:5.0003;stroke-linecap:butt;stroke-linejoin:miter;stroke-miterlimit:2.61313;stroke-dasharray:none;stroke-opacity:1"
         id="path34" />
      <path
         d="m 859.176,689.406 c 183.034,0 331.414,-148.383 331.414,-331.418 0,-183.035 -148.38,-331.4177 -331.414,-331.4177 -183.035,0 -331.418,148.3827 -331.418,331.4177 0,183.035 148.383,331.418 331.418,331.418"
         style="fill:#e9e8e8;fill-opacity:1;fill-rule:evenodd;stroke:none"
         id="path36" />
      <path
         d="m 859.176,689.406 c 183.034,0 331.414,-148.383 331.414,-331.418 0,-183.035 -148.38,-331.4177 -331.414,-331.4177 -183.035,0 -331.418,148.3827 -331.418,331.4177 0,183.035 148.383,331.418 331.418,331.418 z"
         style="fill:none;stroke:#231f20;stroke-width:5.0003;stroke-linecap:butt;stroke-linejoin:miter;stroke-miterlimit:2.61313;stroke-dasharray:none;stroke-opacity:1"
         id="path38" />
      <path
         d="M 9.78125,8.90625 334.531,772.324"
         style="fill:none;stroke:#ed1c24;stroke-width:11.3386;stroke-linecap:butt;stroke-linejoin:miter;stroke-miterlimit:2.61313;stroke-dasharray:none;stroke-opacity:1"
         id="path40" />
      <path
         d="M 345.855,798.945 320.891,777.707 347.867,766.23 Z"
         style="fill:#ed1c24;fill-opacity:1;fill-rule:evenodd;stroke:none"
         id="path42" />
      <g
         id="g44"
         transform="scale(10)">
        <text
           xml:space="preserve"
           transform="matrix(1,0,0,-1,22.0625,71.4762)"
           style="font-variant:normal;font-weight:bold;font-size:8.99986px;font-family:Calibri;-inkscape-font-specification:Calibri-Bold;writing-mode:lr-tb;fill:#ed1c24;fill-opacity:1;fill-rule:nonzero;stroke:none"
           id="text48"><tspan
             x="0 3.1992199"
             y="0"
             id="tspan46">r₁</tspan></text>
      </g>
      <g
         id="g50"
         transform="scale(10)">
        <text
           xml:space="preserve"
           transform="matrix(1,0,0,-1,28.675,82.8223)"
           style="font-variant:normal;font-weight:normal;font-size:7.99981px;font-family:Calibri;-inkscape-font-specification:Calibri;writing-mode:lr-tb;fill:#231f20;fill-opacity:1;fill-rule:nonzero;stroke:none"
           id="text64"><tspan
             x="0"
             y="0"
             id="tspan52">1</tspan><tspan
             x="64.705498"
             y="-5.35039"
             id="tspan54">5</tspan><tspan
             x="114.5672"
             y="13.39571"
             id="tspan56">3</tspan><tspan
             x="60.955101"
             y="50.04961"
             id="tspan58">2</tspan><tspan
             x="7.0507998"
             y="61.574612"
             id="tspan60">4</tspan><tspan
             x="111.8598"
             y="64.862503"
             id="tspan62">6</tspan></text>
        <text
           xml:space="preserve"
           transform="matrix(1,0,0,-1,50.7637,59.5719)"
           style="font-variant:normal;font-weight:bold;font-size:8.99986px;font-family:Calibri;-inkscape-font-specification:Calibri-Bold;writing-mode:lr-tb;fill:#231f20;fill-opacity:1;fill-rule:nonzero;stroke:none"
           id="text68"><tspan
             x="0"
             y="0"
             id="tspan66">r</tspan></text>
      </g>
      <g
         id="g70"
         transform="scale(10)">
        <text
           xml:space="preserve"
           transform="matrix(1,0,0,-1,43.4711,80.7617)"
           style="font-variant:normal;font-weight:bold;font-size:8.99986px;font-family:Calibri;-inkscape-font-specification:Calibri-Bold;writing-mode:lr-tb;fill:#0994dc;fill-opacity:1;fill-rule:nonzero;stroke:none"
           id="text74"><tspan
             x="0"
             y="0"
             id="tspan72">r</tspan></text>
        <text
           xml:space="preserve"
           transform="matrix(1,0,0,-1,46.67032,80.7617)"
           style="font-variant:normal;font-weight:normal;font-size:8.99986px;font-family:'Courier New';-inkscape-font-specification:CourierNewPSMT;writing-mode:lr-tb;fill:#0994dc;fill-opacity:1;fill-rule:nonzero;stroke:none"
           id="text78"><tspan
             x="0"
             y="0"
             id="tspan76">’</tspan></text>
      </g>
      <path
         d="M 348.18,804.09 522.195,757.051"
         style="fill:none;stroke:#0994dc;stroke-width:11.3386;stroke-linecap:butt;stroke-linejoin:miter;stroke-miterlimit:2.61313;stroke-dasharray:none;stroke-opacity:1"
         id="path80" />
      <path
         d="m 550.168,749.492 -24.512,21.832 -7.664,-28.344 z"
         style="fill:#0994dc;fill-opacity:1;fill-rule:evenodd;stroke:none"
         id="path82" />
      <path
         d="m 858.688,368.156 c 5.695,0 10.312,-4.617 10.312,-10.312 0,-5.692 -4.617,-10.313 -10.312,-10.313 -5.696,0 -10.313,4.621 -10.313,10.313 0,5.695 4.617,10.312 10.313,10.312"
         style="fill:#231f20;fill-opacity:1;fill-rule:evenodd;stroke:none"
         id="path84" />
      <path
         d="m 858.688,368.156 c 5.695,0 10.312,-4.617 10.312,-10.312 0,-5.692 -4.617,-10.313 -10.312,-10.313 -5.696,0 -10.313,4.621 -10.313,10.313 0,5.695 4.617,10.312 10.313,10.312 z"
         style="fill:none;stroke:#231f20;stroke-width:5.0003;stroke-linecap:butt;stroke-linejoin:miter;stroke-miterlimit:2.61313;stroke-dasharray:none;stroke-opacity:1"
         id="path86" />
      <path
         d="m 1396.73,730.816 c 5.69,0 10.31,-4.617 10.31,-10.312 0,-5.695 -4.62,-10.313 -10.31,-10.313 -5.7,0 -10.32,4.618 -10.32,10.313 0,5.695 4.62,10.312 10.32,10.312"
         style="fill:#231f20;fill-opacity:1;fill-rule:evenodd;stroke:none"
         id="path88" />
      <path
         d="m 1396.73,730.816 c 5.69,0 10.31,-4.617 10.31,-10.312 0,-5.695 -4.62,-10.313 -10.31,-10.313 -5.7,0 -10.32,4.618 -10.32,10.313 0,5.695 4.62,10.312 10.32,10.312 z"
         style="fill:none;stroke:#231f20;stroke-width:5.0003;stroke-linecap:butt;stroke-linejoin:miter;stroke-miterlimit:2.61313;stroke-dasharray:none;stroke-opacity:1"
         id="path90" />
      <path
         d="m 893.309,917.355 c 5.695,0 10.312,-4.617 10.312,-10.312 0,-5.695 -4.617,-10.313 -10.312,-10.313 -5.696,0 -10.313,4.618 -10.313,10.313 0,5.695 4.617,10.312 10.313,10.312"
         style="fill:#231f20;fill-opacity:1;fill-rule:evenodd;stroke:none"
         id="path92" />
      <path
         d="m 893.309,917.355 c 5.695,0 10.312,-4.617 10.312,-10.312 0,-5.695 -4.617,-10.313 -10.312,-10.313 -5.696,0 -10.313,4.618 -10.313,10.313 0,5.695 4.617,10.312 10.313,10.312 z"
         style="fill:none;stroke:#231f20;stroke-width:5.0003;stroke-linecap:butt;stroke-linejoin:miter;stroke-miterlimit:2.61313;stroke-dasharray:none;stroke-opacity:1"
         id="path94" />
      <path
         d="m 314.891,245.277 c 5.695,0 10.312,-4.617 10.312,-10.312 0,-5.692 -4.617,-10.313 -10.312,-10.313 -5.696,0 -10.313,4.621 -10.313,10.313 0,5.695 4.617,10.312 10.313,10.312"
         style="fill:#231f20;fill-opacity:1;fill-rule:evenodd;stroke:none"
         id="path96" />
      <path
         d="m 314.891,245.277 c 5.695,0 10.312,-4.617 10.312,-10.312 0,-5.692 -4.617,-10.313 -10.312,-10.313 -5.696,0 -10.313,4.621 -10.313,10.313 0,5.695 4.617,10.312 10.313,10.312 z"
         style="fill:none;stroke:#231f20;stroke-width:5.0003;stroke-linecap:butt;stroke-linejoin:miter;stroke-miterlimit:2.61313;stroke-dasharray:none;stroke-opacity:1"
         id="path98" />
      <path
         d="m 1368.64,215.281 c 5.7,0 10.31,-4.621 10.31,-10.312 0,-5.696 -4.61,-10.313 -10.31,-10.313 -5.69,0 -10.31,4.617 -10.31,10.313 0,5.691 4.62,10.312 10.31,10.312"
         style="fill:#231f20;fill-opacity:1;fill-rule:evenodd;stroke:none"
         id="path100" />
      <path
         d="m 1368.64,215.281 c 5.7,0 10.31,-4.621 10.31,-10.312 0,-5.696 -4.61,-10.313 -10.31,-10.313 -5.69,0 -10.31,4.617 -10.31,10.313 0,5.691 4.62,10.312 10.31,10.312 z"
         style="fill:none;stroke:#231f20;stroke-width:5.0003;stroke-linecap:butt;stroke-linejoin:miter;stroke-miterlimit:2.61313;stroke-dasharray:none;stroke-opacity:1"
         id="path102" />
      <path
         d="m 345.895,815.367 c 5.695,0 10.312,-4.617 10.312,-10.312 0,-5.696 -4.617,-10.313 -10.312,-10.313 -5.692,0 -10.313,4.617 -10.313,10.313 0,5.695 4.621,10.312 10.313,10.312"
         style="fill:#231f20;fill-opacity:1;fill-rule:evenodd;stroke:none"
         id="path104" />
      <path
         d="m 345.895,815.367 c 5.695,0 10.312,-4.617 10.312,-10.312 0,-5.696 -4.617,-10.313 -10.312,-10.313 -5.692,0 -10.313,4.617 -10.313,10.313 0,5.695 4.621,10.312 10.313,10.312 z"
         style="fill:none;stroke:#231f20;stroke-width:5.0003;stroke-linecap:butt;stroke-linejoin:miter;stroke-miterlimit:2.61313;stroke-dasharray:none;stroke-opacity:1"
         id="path106" />
      <path
         d="M 9.75781,10.9922 533.484,719.887"
         style="fill:none;stroke:#231f20;stroke-width:11.3386;stroke-linecap:butt;stroke-linejoin:miter;stroke-miterlimit:2.61313;stroke-dasharray:none;stroke-opacity:1"
         id="path108" />
      <path
         d="m 550.672,743.148 -29.203,-14.867 23.574,-17.414 z"
         style="fill:#231f20;fill-opacity:1;fill-rule:evenodd;stroke:none"
         id="path110" />
    </g>
  </g>
</svg>
