<?xml version="1.0" encoding="UTF-8" standalone="no"?>
<!-- Created with Inkscape (http://www.inkscape.org/) -->

<svg
   version="1.1"
   id="svg2"
   width="294.66666"
   height="126.66667"
   viewBox="0 0 294.66666 126.66667"
   xmlns="http://www.w3.org/2000/svg"
   xmlns:svg="http://www.w3.org/2000/svg">
  <defs
     id="defs6" />
  <g
     id="g8"
     transform="matrix(1.3333333,0,0,-1.3333333,0,126.66667)">
    <g
       id="g10"
       transform="scale(0.1)">
      <path
         d="M 1674.97,202.656 V 679.844"
         style="fill:none;stroke:#00a650;stroke-width:5.6693;stroke-linecap:butt;stroke-linejoin:miter;stroke-miterlimit:2.61313;stroke-dasharray:none;stroke-opacity:1"
         id="path12" />
      <path
         d="M 1674.97,705.625 1661.9,679.5 h 26.13 z"
         style="fill:#00a650;fill-opacity:1;fill-rule:evenodd;stroke:none"
         id="path14" />
      <path
         d="m 1444.91,422.738 h 470.6"
         style="fill:none;stroke:#00a650;stroke-width:5.6693;stroke-linecap:butt;stroke-linejoin:miter;stroke-miterlimit:2.61313;stroke-dasharray:none;stroke-opacity:1"
         id="path16" />
      <path
         d="m 1941.3,422.738 -26.13,13.067 v -26.129 z"
         style="fill:#00a650;fill-opacity:1;fill-rule:evenodd;stroke:none"
         id="path18" />
      <path
         d="m 1716.19,62.9766 -1.98,824.9964"
         style="fill:none;stroke:#f47216;stroke-width:5.6693;stroke-linecap:butt;stroke-linejoin:miter;stroke-miterlimit:2.61313;stroke-dasharray:none;stroke-opacity:1"
         id="path20" />
      <path
         d="m 1714.15,913.758 -13,-26.16 26.13,0.062 z"
         style="fill:#f47216;fill-opacity:1;fill-rule:evenodd;stroke:none"
         id="path22" />
      <path
         d="m 1230.04,469.66 885.22,1.977"
         style="fill:none;stroke:#f47216;stroke-width:5.6693;stroke-linecap:butt;stroke-linejoin:miter;stroke-miterlimit:2.61313;stroke-dasharray:none;stroke-opacity:1"
         id="path24" />
      <path
         d="m 2141.04,471.695 -26.16,13.004 0.07,-26.125 z"
         style="fill:#f47216;fill-opacity:1;fill-rule:evenodd;stroke:none"
         id="path26" />
      <path
         d="m 408.543,136.547 84.242,-35.52"
         style="fill:none;stroke:#7b7979;stroke-width:11.3386;stroke-linecap:butt;stroke-linejoin:miter;stroke-miterlimit:2.61313;stroke-dasharray:none;stroke-opacity:1"
         id="path28" />
      <path
         d="m 381.926,147.77 32.656,2.117 -11.371,-26.977 z"
         style="fill:#7b7979;fill-opacity:1;fill-rule:evenodd;stroke:none"
         id="path30" />
      <path
         d="M 519.402,89.8047 498.117,114.664 486.746,87.6914 Z"
         style="fill:#7b7979;fill-opacity:1;fill-rule:evenodd;stroke:none"
         id="path32" />
      <path
         d="M 495.094,17.4805 873.73,896.223"
         style="fill:none;stroke:#f47216;stroke-width:3.3987;stroke-linecap:butt;stroke-linejoin:miter;stroke-miterlimit:2.61313;stroke-dasharray:none;stroke-opacity:1"
         id="path34" />
      <path
         d="M 512.762,239.754 V 677.469"
         style="fill:none;stroke:#00a650;stroke-width:5.6693;stroke-linecap:butt;stroke-linejoin:miter;stroke-miterlimit:2.61313;stroke-dasharray:none;stroke-opacity:1"
         id="path36" />
      <path
         d="m 512.762,703.25 -13.067,-26.125 h 26.129 z"
         style="fill:#00a650;fill-opacity:1;fill-rule:evenodd;stroke:none"
         id="path38" />
      <path
         d="M 712.594,391.918 291.922,558.73"
         style="fill:none;stroke:#00a650;stroke-width:5.6693;stroke-linecap:butt;stroke-linejoin:miter;stroke-miterlimit:2.61313;stroke-dasharray:none;stroke-opacity:1"
         id="path40" />
      <path
         d="m 736.563,382.414 -29.106,-2.512 9.629,24.289 z"
         style="fill:#00a650;fill-opacity:1;fill-rule:evenodd;stroke:none"
         id="path42" />
      <path
         d="M 314.301,9.96875 705.094,916.934"
         style="fill:none;stroke:#f47216;stroke-width:5.6693;stroke-linecap:butt;stroke-linejoin:miter;stroke-miterlimit:2.61313;stroke-dasharray:none;stroke-opacity:1"
         id="path44" />
      <path
         d="m 715.297,940.609 -22.336,-18.824 23.992,-10.34 z"
         style="fill:#f47216;fill-opacity:1;fill-rule:evenodd;stroke:none"
         id="path46" />
      <path
         d="m 69.9727,469.586 885.2183,1.977"
         style="fill:none;stroke:#f47216;stroke-width:5.6693;stroke-linecap:butt;stroke-linejoin:miter;stroke-miterlimit:2.61313;stroke-dasharray:none;stroke-opacity:1"
         id="path48" />
      <path
         d="m 980.977,471.621 -26.161,13.004 0.059,-26.125 z"
         style="fill:#f47216;fill-opacity:1;fill-rule:evenodd;stroke:none"
         id="path50" />
      <g
         id="g52"
         transform="scale(10)">
        <text
           xml:space="preserve"
           transform="matrix(1,0,0,-1,75.143,36.0723)"
           style="font-variant:normal;font-weight:bold;font-size:7.99981px;font-family:Arial;-inkscape-font-specification:ArialMT-Bold;writing-mode:lr-tb;fill:#00a650;fill-opacity:1;fill-rule:nonzero;stroke:none"
           id="text58"><tspan
             x="0 4.4478946"
             y="0"
             id="tspan54">a*</tspan><tspan
             x="120.601 125.0489"
             y="-2.46523"
             id="tspan56">a*</tspan></text>
      </g>
      <g
         id="g60"
         transform="scale(10)">
        <text
           xml:space="preserve"
           transform="matrix(0.939177,-0.343434,-0.343434,-0.939177,41.9566,17.5156)"
           style="font-style:italic;font-variant:normal;font-weight:normal;font-size:6.99978px;font-family:Arial;-inkscape-font-specification:ArialMT-NormalItalic;writing-mode:lr-tb;fill:#656263;fill-opacity:1;fill-rule:nonzero;stroke:none"
           id="text64"><tspan
             x="0"
             y="0"
             id="tspan62">d</tspan></text>
        <text
           xml:space="preserve"
           transform="matrix(0.939177,-0.343434,-0.343434,-0.939177,45.132382,14.863648)"
           style="font-variant:normal;font-weight:normal;font-size:3.49989px;font-family:Arial;-inkscape-font-specification:ArialMT;writing-mode:lr-tb;fill:#656263;fill-opacity:1;fill-rule:nonzero;stroke:none"
           id="text68"><tspan
             x="0 1.9464693 3.8929386"
             y="0"
             id="tspan66">100</tspan></text>
      </g>
      <g
         id="g70"
         transform="scale(10)">
        <text
           xml:space="preserve"
           transform="matrix(1,0,0,-1,48.8703,72.084)"
           style="font-variant:normal;font-weight:bold;font-size:7.99981px;font-family:Arial;-inkscape-font-specification:ArialMT-Bold;writing-mode:lr-tb;fill:#00a650;fill-opacity:1;fill-rule:nonzero;stroke:none"
           id="text80"><tspan
             x="0"
             y="0"
             id="tspan72">c</tspan><tspan
             x="4.4492202"
             y="-0.80000001"
             id="tspan74">*</tspan><tspan
             x="110.91122"
             y="2.47773"
             id="tspan76">b</tspan><tspan
             x="115.79794"
             y="1.67773"
             id="tspan78">*</tspan></text>
      </g>
      <g
         id="g82"
         transform="scale(10)">
        <text
           xml:space="preserve"
           transform="matrix(1,0,0,-1,99.6926,44.977)"
           style="font-variant:normal;font-weight:bold;font-size:7.99981px;font-family:Arial;-inkscape-font-specification:ArialMT-Bold;writing-mode:lr-tb;fill:#f47216;fill-opacity:1;fill-rule:nonzero;stroke:none"
           id="text88"><tspan
             x="0"
             y="0"
             id="tspan84">a</tspan><tspan
             x="116.29"
             y="-0.00742188"
             id="tspan86">a</tspan></text>
        <text
           xml:space="preserve"
           transform="matrix(1,0,0,-1,57.4256,51.321532)"
           style="font-style:italic;font-variant:normal;font-weight:normal;font-size:7.99981px;font-family:Arial;-inkscape-font-specification:ArialMT-NormalItalic;writing-mode:lr-tb;fill:#f47216;fill-opacity:1;fill-rule:nonzero;stroke:none"
           id="text92"><tspan
             x="0"
             y="0"
             id="tspan90">β</tspan></text>
        <text
           xml:space="preserve"
           transform="matrix(1,0,0,-1,74.1807,88.775832)"
           style="font-variant:normal;font-weight:bold;font-size:7.99981px;font-family:Arial;-inkscape-font-specification:ArialMT-Bold;writing-mode:lr-tb;fill:#f47216;fill-opacity:1;fill-rule:nonzero;stroke:none"
           id="text96"><tspan
             x="0"
             y="0"
             id="tspan94">c</tspan></text>
        <text
           xml:space="preserve"
           transform="matrix(1,0,0,-1,89.2494,88.750051)"
           style="font-variant:normal;font-weight:normal;font-size:6.99976px;font-family:Arial;-inkscape-font-specification:ArialMT;writing-mode:lr-tb;fill:#f47216;fill-opacity:1;fill-rule:nonzero;stroke:none"
           id="text100"><tspan
             x="0 2.33092 6.2227864 10.114654 14.006519"
             y="0"
             id="tspan98">(100)</tspan></text>
        <text
           xml:space="preserve"
           transform="matrix(1,0,0,-1,174.9795,86.968021)"
           style="font-variant:normal;font-weight:bold;font-size:7.99981px;font-family:Arial;-inkscape-font-specification:ArialMT-Bold;writing-mode:lr-tb;fill:#f47216;fill-opacity:1;fill-rule:nonzero;stroke:none"
           id="text104"><tspan
             x="0"
             y="0"
             id="tspan102">b</tspan></text>
      </g>
      <path
         d="m 2064.13,305.871 c 4.83,0 8.75,-3.918 8.75,-8.75 0,-4.836 -3.92,-8.75 -8.75,-8.75 -4.84,0 -8.75,3.914 -8.75,8.75 0,4.832 3.91,8.75 8.75,8.75"
         style="fill:#231f20;fill-opacity:1;fill-rule:evenodd;stroke:none"
         id="path106" />
      <path
         d="m 2064.13,305.871 c 4.83,0 8.75,-3.918 8.75,-8.75 0,-4.836 -3.92,-8.75 -8.75,-8.75 -4.84,0 -8.75,3.914 -8.75,8.75 0,4.832 3.91,8.75 8.75,8.75 z"
         style="fill:none;stroke:#231f20;stroke-width:14.1732;stroke-linecap:butt;stroke-linejoin:miter;stroke-miterlimit:2.61313;stroke-dasharray:none;stroke-opacity:1"
         id="path108" />
      <path
         d="m 789.027,305.711 c 4.817,0 8.719,-3.902 8.719,-8.719 0,-4.812 -3.902,-8.715 -8.719,-8.715 -4.816,0 -8.718,3.903 -8.718,8.715 0,4.817 3.902,8.719 8.718,8.719"
         style="fill:#231f20;fill-opacity:1;fill-rule:evenodd;stroke:none"
         id="path110" />
      <path
         d="m 789.027,305.711 c 4.817,0 8.719,-3.902 8.719,-8.719 0,-4.812 -3.902,-8.715 -8.719,-8.715 -4.816,0 -8.718,3.903 -8.718,8.715 0,4.817 3.902,8.719 8.718,8.719 z"
         style="fill:none;stroke:#231f20;stroke-width:14.1732;stroke-linecap:butt;stroke-linejoin:miter;stroke-miterlimit:2.61313;stroke-dasharray:none;stroke-opacity:1"
         id="path112" />
      <path
         d="m 2063.75,656.656 c 4.84,0 8.76,-3.918 8.76,-8.75 0,-4.836 -3.92,-8.754 -8.76,-8.754 -4.83,0 -8.75,3.918 -8.75,8.754 0,4.832 3.92,8.75 8.75,8.75"
         style="fill:#231f20;fill-opacity:1;fill-rule:evenodd;stroke:none"
         id="path114" />
      <path
         d="m 2063.75,656.656 c 4.84,0 8.76,-3.918 8.76,-8.75 0,-4.836 -3.92,-8.754 -8.76,-8.754 -4.83,0 -8.75,3.918 -8.75,8.754 0,4.832 3.92,8.75 8.75,8.75 z"
         style="fill:none;stroke:#231f20;stroke-width:14.1732;stroke-linecap:butt;stroke-linejoin:miter;stroke-miterlimit:2.61313;stroke-dasharray:none;stroke-opacity:1"
         id="path116" />
      <path
         d="m 938.891,655.188 c 4.816,0 8.718,-3.903 8.718,-8.715 0,-4.817 -3.902,-8.719 -8.718,-8.719 -4.817,0 -8.719,3.902 -8.719,8.719 0,4.812 3.902,8.715 8.719,8.715"
         style="fill:#231f20;fill-opacity:1;fill-rule:evenodd;stroke:none"
         id="path118" />
      <path
         d="m 938.891,655.188 c 4.816,0 8.718,-3.903 8.718,-8.715 0,-4.817 -3.902,-8.719 -8.718,-8.719 -4.817,0 -8.719,3.902 -8.719,8.719 0,4.812 3.902,8.715 8.719,8.715 z"
         style="fill:none;stroke:#231f20;stroke-width:14.1732;stroke-linecap:butt;stroke-linejoin:miter;stroke-miterlimit:2.61313;stroke-dasharray:none;stroke-opacity:1"
         id="path120" />
      <path
         d="m 2062.89,479.023 c 4.83,0 8.75,-3.921 8.75,-8.753 0,-4.832 -3.92,-8.75 -8.75,-8.75 -4.84,0 -8.75,3.918 -8.75,8.75 0,4.832 3.91,8.753 8.75,8.753"
         style="fill:#231f20;fill-opacity:1;fill-rule:evenodd;stroke:none"
         id="path122" />
      <path
         d="m 2062.89,479.023 c 4.83,0 8.75,-3.921 8.75,-8.753 0,-4.832 -3.92,-8.75 -8.75,-8.75 -4.84,0 -8.75,3.918 -8.75,8.75 0,4.832 3.91,8.753 8.75,8.753 z"
         style="fill:none;stroke:#231f20;stroke-width:14.1732;stroke-linecap:butt;stroke-linejoin:miter;stroke-miterlimit:2.61313;stroke-dasharray:none;stroke-opacity:1"
         id="path124" />
      <path
         d="m 861.496,478.215 c 4.813,0 8.715,-3.902 8.715,-8.719 0,-4.812 -3.902,-8.715 -8.715,-8.715 -4.816,0 -8.719,3.903 -8.719,8.715 0,4.817 3.903,8.719 8.719,8.719"
         style="fill:#231f20;fill-opacity:1;fill-rule:evenodd;stroke:none"
         id="path126" />
      <path
         d="m 861.496,478.215 c 4.813,0 8.715,-3.902 8.715,-8.719 0,-4.812 -3.902,-8.715 -8.715,-8.715 -4.816,0 -8.719,3.903 -8.719,8.715 0,4.817 3.903,8.719 8.719,8.719 z"
         style="fill:none;stroke:#231f20;stroke-width:14.1732;stroke-linecap:butt;stroke-linejoin:miter;stroke-miterlimit:2.61313;stroke-dasharray:none;stroke-opacity:1"
         id="path128" />
      <path
         d="m 2062.2,831.445 c 4.83,0 8.75,-3.918 8.75,-8.75 0,-4.832 -3.92,-8.75 -8.75,-8.75 -4.84,0 -8.76,3.918 -8.76,8.75 0,4.832 3.92,8.75 8.76,8.75"
         style="fill:#231f20;fill-opacity:1;fill-rule:evenodd;stroke:none"
         id="path130" />
      <path
         d="m 2062.2,831.445 c 4.83,0 8.75,-3.918 8.75,-8.75 0,-4.832 -3.92,-8.75 -8.75,-8.75 -4.84,0 -8.76,3.918 -8.76,8.75 0,4.832 3.92,8.75 8.76,8.75 z"
         style="fill:none;stroke:#231f20;stroke-width:14.1732;stroke-linecap:butt;stroke-linejoin:miter;stroke-miterlimit:2.61313;stroke-dasharray:none;stroke-opacity:1"
         id="path132" />
      <path
         d="m 1013.87,829.332 c 4.81,0 8.72,-3.906 8.72,-8.719 0,-4.816 -3.91,-8.718 -8.72,-8.718 -4.82,0 -8.72,3.902 -8.72,8.718 0,4.813 3.9,8.719 8.72,8.719"
         style="fill:#231f20;fill-opacity:1;fill-rule:evenodd;stroke:none"
         id="path134" />
      <path
         d="m 1013.87,829.332 c 4.81,0 8.72,-3.906 8.72,-8.719 0,-4.816 -3.91,-8.718 -8.72,-8.718 -4.82,0 -8.72,3.902 -8.72,8.718 0,4.813 3.9,8.719 8.72,8.719 z"
         style="fill:none;stroke:#231f20;stroke-width:14.1732;stroke-linecap:butt;stroke-linejoin:miter;stroke-miterlimit:2.61313;stroke-dasharray:none;stroke-opacity:1"
         id="path136" />
      <path
         d="m 1890.32,129.582 c 4.83,0 8.75,-3.918 8.75,-8.75 0,-4.836 -3.92,-8.754 -8.75,-8.754 -4.83,0 -8.75,3.918 -8.75,8.754 0,4.832 3.92,8.75 8.75,8.75"
         style="fill:#231f20;fill-opacity:1;fill-rule:evenodd;stroke:none"
         id="path138" />
      <path
         d="m 1890.32,129.582 c 4.83,0 8.75,-3.918 8.75,-8.75 0,-4.836 -3.92,-8.754 -8.75,-8.754 -4.83,0 -8.75,3.918 -8.75,8.754 0,4.832 3.92,8.75 8.75,8.75 z"
         style="fill:none;stroke:#231f20;stroke-width:14.1732;stroke-linecap:butt;stroke-linejoin:miter;stroke-miterlimit:2.61313;stroke-dasharray:none;stroke-opacity:1"
         id="path140" />
      <path
         d="m 539.328,130.078 c 4.817,0 8.719,-3.906 8.719,-8.719 0,-4.816 -3.902,-8.718 -8.719,-8.718 -4.812,0 -8.715,3.902 -8.715,8.718 0,4.813 3.903,8.719 8.715,8.719"
         style="fill:#231f20;fill-opacity:1;fill-rule:evenodd;stroke:none"
         id="path142" />
      <path
         d="m 539.328,130.078 c 4.817,0 8.719,-3.906 8.719,-8.719 0,-4.816 -3.902,-8.718 -8.719,-8.718 -4.812,0 -8.715,3.902 -8.715,8.718 0,4.813 3.903,8.719 8.715,8.719 z"
         style="fill:none;stroke:#231f20;stroke-width:14.1732;stroke-linecap:butt;stroke-linejoin:miter;stroke-miterlimit:2.61313;stroke-dasharray:none;stroke-opacity:1"
         id="path144" />
      <path
         d="m 2063.23,130.965 c 4.83,0 8.75,-3.918 8.75,-8.75 0,-4.836 -3.92,-8.75 -8.75,-8.75 -4.84,0 -8.75,3.914 -8.75,8.75 0,4.832 3.91,8.75 8.75,8.75"
         style="fill:#231f20;fill-opacity:1;fill-rule:evenodd;stroke:none"
         id="path146" />
      <path
         d="m 2063.23,130.965 c 4.83,0 8.75,-3.918 8.75,-8.75 0,-4.836 -3.92,-8.75 -8.75,-8.75 -4.84,0 -8.75,3.914 -8.75,8.75 0,4.832 3.91,8.75 8.75,8.75 z"
         style="fill:none;stroke:#231f20;stroke-width:14.1732;stroke-linecap:butt;stroke-linejoin:miter;stroke-miterlimit:2.61313;stroke-dasharray:none;stroke-opacity:1"
         id="path148" />
      <path
         d="m 711.594,131.453 c 4.812,0 8.715,-3.902 8.715,-8.719 0,-4.812 -3.903,-8.714 -8.715,-8.714 -4.817,0 -8.719,3.902 -8.719,8.714 0,4.817 3.902,8.719 8.719,8.719"
         style="fill:#231f20;fill-opacity:1;fill-rule:evenodd;stroke:none"
         id="path150" />
      <path
         d="m 711.594,131.453 c 4.812,0 8.715,-3.902 8.715,-8.719 0,-4.812 -3.903,-8.714 -8.715,-8.714 -4.817,0 -8.719,3.902 -8.719,8.714 0,4.817 3.902,8.719 8.719,8.719 z"
         style="fill:none;stroke:#231f20;stroke-width:14.1732;stroke-linecap:butt;stroke-linejoin:miter;stroke-miterlimit:2.61313;stroke-dasharray:none;stroke-opacity:1"
         id="path152" />
      <path
         d="m 1537.11,132.816 c 4.83,0 8.75,-3.914 8.75,-8.75 0,-4.832 -3.92,-8.75 -8.75,-8.75 -4.83,0 -8.75,3.918 -8.75,8.75 0,4.836 3.92,8.75 8.75,8.75"
         style="fill:#231f20;fill-opacity:1;fill-rule:evenodd;stroke:none"
         id="path154" />
      <path
         d="m 1537.11,132.816 c 4.83,0 8.75,-3.914 8.75,-8.75 0,-4.832 -3.92,-8.75 -8.75,-8.75 -4.83,0 -8.75,3.918 -8.75,8.75 0,4.836 3.92,8.75 8.75,8.75 z"
         style="fill:none;stroke:#231f20;stroke-width:14.1732;stroke-linecap:butt;stroke-linejoin:miter;stroke-miterlimit:2.61313;stroke-dasharray:none;stroke-opacity:1"
         id="path156" />
      <path
         d="m 187.434,133.305 c 4.816,0 8.718,-3.907 8.718,-8.723 0,-4.812 -3.902,-8.715 -8.718,-8.715 -4.813,0 -8.719,3.903 -8.719,8.715 0,4.816 3.906,8.723 8.719,8.723"
         style="fill:#231f20;fill-opacity:1;fill-rule:evenodd;stroke:none"
         id="path158" />
      <path
         d="m 187.434,133.305 c 4.816,0 8.718,-3.907 8.718,-8.723 0,-4.812 -3.902,-8.715 -8.718,-8.715 -4.813,0 -8.719,3.903 -8.719,8.715 0,4.816 3.906,8.723 8.719,8.723 z"
         style="fill:none;stroke:#231f20;stroke-width:14.1732;stroke-linecap:butt;stroke-linejoin:miter;stroke-miterlimit:2.61313;stroke-dasharray:none;stroke-opacity:1"
         id="path160" />
      <path
         d="m 1365.57,132.203 c 4.84,0 8.75,-3.918 8.75,-8.75 0,-4.832 -3.91,-8.75 -8.75,-8.75 -4.83,0 -8.75,3.918 -8.75,8.75 0,4.832 3.92,8.75 8.75,8.75"
         style="fill:#231f20;fill-opacity:1;fill-rule:evenodd;stroke:none"
         id="path162" />
      <path
         d="m 1365.57,132.203 c 4.84,0 8.75,-3.918 8.75,-8.75 0,-4.832 -3.91,-8.75 -8.75,-8.75 -4.83,0 -8.75,3.918 -8.75,8.75 0,4.832 3.92,8.75 8.75,8.75 z"
         style="fill:none;stroke:#231f20;stroke-width:14.1732;stroke-linecap:butt;stroke-linejoin:miter;stroke-miterlimit:2.61313;stroke-dasharray:none;stroke-opacity:1"
         id="path164" />
      <path
         d="m 16.5313,132.688 c 4.8164,0 8.7187,-3.903 8.7187,-8.715 0,-4.817 -3.9023,-8.723 -8.7187,-8.723 -4.8165,0 -8.7188,3.906 -8.7188,8.723 0,4.812 3.9023,8.715 8.7188,8.715"
         style="fill:#231f20;fill-opacity:1;fill-rule:evenodd;stroke:none"
         id="path166" />
      <path
         d="m 16.5313,132.688 c 4.8164,0 8.7187,-3.903 8.7187,-8.715 0,-4.817 -3.9023,-8.723 -8.7187,-8.723 -4.8165,0 -8.7188,3.906 -8.7188,8.723 0,4.812 3.9023,8.715 8.7188,8.715 z"
         style="fill:none;stroke:#231f20;stroke-width:14.1732;stroke-linecap:butt;stroke-linejoin:miter;stroke-miterlimit:2.61313;stroke-dasharray:none;stroke-opacity:1"
         id="path168" />
      <path
         d="m 1714.64,130.41 c 4.84,0 8.75,-3.918 8.75,-8.75 0,-4.832 -3.91,-8.754 -8.75,-8.754 -4.83,0 -8.75,3.922 -8.75,8.754 0,4.832 3.92,8.75 8.75,8.75"
         style="fill:#231f20;fill-opacity:1;fill-rule:evenodd;stroke:none"
         id="path170" />
      <path
         d="m 1714.64,130.41 c 4.84,0 8.75,-3.918 8.75,-8.75 0,-4.832 -3.91,-8.754 -8.75,-8.754 -4.83,0 -8.75,3.922 -8.75,8.754 0,4.832 3.92,8.75 8.75,8.75 z"
         style="fill:none;stroke:#231f20;stroke-width:14.1732;stroke-linecap:butt;stroke-linejoin:miter;stroke-miterlimit:2.61313;stroke-dasharray:none;stroke-opacity:1"
         id="path172" />
      <path
         d="m 363.258,130.902 c 4.812,0 8.715,-3.902 8.715,-8.718 0,-4.813 -3.903,-8.719 -8.715,-8.719 -4.817,0 -8.719,3.906 -8.719,8.719 0,4.816 3.902,8.718 8.719,8.718"
         style="fill:#231f20;fill-opacity:1;fill-rule:evenodd;stroke:none"
         id="path174" />
      <path
         d="m 363.258,130.902 c 4.812,0 8.715,-3.902 8.715,-8.718 0,-4.813 -3.903,-8.719 -8.715,-8.719 -4.817,0 -8.719,3.906 -8.719,8.719 0,4.816 3.902,8.718 8.719,8.718 z"
         style="fill:none;stroke:#231f20;stroke-width:14.1732;stroke-linecap:butt;stroke-linejoin:miter;stroke-miterlimit:2.61313;stroke-dasharray:none;stroke-opacity:1"
         id="path176" />
      <path
         d="m 1367.33,305.652 c 4.83,0 8.75,-3.918 8.75,-8.75 0,-4.832 -3.92,-8.75 -8.75,-8.75 -4.83,0 -8.75,3.918 -8.75,8.75 0,4.832 3.92,8.75 8.75,8.75"
         style="fill:#231f20;fill-opacity:1;fill-rule:evenodd;stroke:none"
         id="path178" />
      <path
         d="m 1367.33,305.652 c 4.83,0 8.75,-3.918 8.75,-8.75 0,-4.832 -3.92,-8.75 -8.75,-8.75 -4.83,0 -8.75,3.918 -8.75,8.75 0,4.832 3.92,8.75 8.75,8.75 z"
         style="fill:none;stroke:#231f20;stroke-width:14.1732;stroke-linecap:butt;stroke-linejoin:miter;stroke-miterlimit:2.61313;stroke-dasharray:none;stroke-opacity:1"
         id="path180" />
      <path
         d="m 94.8242,305.492 c 4.8125,0 8.7188,-3.902 8.7188,-8.715 0,-4.816 -3.9063,-8.718 -8.7188,-8.718 -4.8164,0 -8.7226,3.902 -8.7226,8.718 0,4.813 3.9062,8.715 8.7226,8.715"
         style="fill:#231f20;fill-opacity:1;fill-rule:evenodd;stroke:none"
         id="path182" />
      <path
         d="m 94.8242,305.492 c 4.8125,0 8.7188,-3.902 8.7188,-8.715 0,-4.816 -3.9063,-8.718 -8.7188,-8.718 -4.8164,0 -8.7226,3.902 -8.7226,8.718 0,4.813 3.9062,8.715 8.7226,8.715 z"
         style="fill:none;stroke:#231f20;stroke-width:14.1732;stroke-linecap:butt;stroke-linejoin:miter;stroke-miterlimit:2.61313;stroke-dasharray:none;stroke-opacity:1"
         id="path184" />
      <path
         d="m 1366.96,656.438 c 4.83,0 8.75,-3.918 8.75,-8.75 0,-4.836 -3.92,-8.754 -8.75,-8.754 -4.83,0 -8.75,3.918 -8.75,8.754 0,4.832 3.92,8.75 8.75,8.75"
         style="fill:#231f20;fill-opacity:1;fill-rule:evenodd;stroke:none"
         id="path186" />
      <path
         d="m 1366.96,656.438 c 4.83,0 8.75,-3.918 8.75,-8.75 0,-4.836 -3.92,-8.754 -8.75,-8.754 -4.83,0 -8.75,3.918 -8.75,8.754 0,4.832 3.92,8.75 8.75,8.75 z"
         style="fill:none;stroke:#231f20;stroke-width:14.1732;stroke-linecap:butt;stroke-linejoin:miter;stroke-miterlimit:2.61313;stroke-dasharray:none;stroke-opacity:1"
         id="path188" />
      <path
         d="m 244.684,654.973 c 4.816,0 8.718,-3.903 8.718,-8.719 0,-4.813 -3.902,-8.715 -8.718,-8.715 -4.813,0 -8.715,3.902 -8.715,8.715 0,4.816 3.902,8.719 8.715,8.719"
         style="fill:#231f20;fill-opacity:1;fill-rule:evenodd;stroke:none"
         id="path190" />
      <path
         d="m 244.684,654.973 c 4.816,0 8.718,-3.903 8.718,-8.719 0,-4.813 -3.902,-8.715 -8.718,-8.715 -4.813,0 -8.715,3.902 -8.715,8.715 0,4.816 3.902,8.719 8.715,8.719 z"
         style="fill:none;stroke:#231f20;stroke-width:14.1732;stroke-linecap:butt;stroke-linejoin:miter;stroke-miterlimit:2.61313;stroke-dasharray:none;stroke-opacity:1"
         id="path192" />
      <path
         d="m 1366.09,478.805 c 4.84,0 8.75,-3.918 8.75,-8.75 0,-4.836 -3.91,-8.754 -8.75,-8.754 -4.83,0 -8.75,3.918 -8.75,8.754 0,4.832 3.92,8.75 8.75,8.75"
         style="fill:#231f20;fill-opacity:1;fill-rule:evenodd;stroke:none"
         id="path194" />
      <path
         d="m 1366.09,478.805 c 4.84,0 8.75,-3.918 8.75,-8.75 0,-4.836 -3.91,-8.754 -8.75,-8.754 -4.83,0 -8.75,3.918 -8.75,8.754 0,4.832 3.92,8.75 8.75,8.75 z"
         style="fill:none;stroke:#231f20;stroke-width:14.1732;stroke-linecap:butt;stroke-linejoin:miter;stroke-miterlimit:2.61313;stroke-dasharray:none;stroke-opacity:1"
         id="path196" />
      <path
         d="m 167.289,478 c 4.813,0 8.719,-3.902 8.719,-8.719 0,-4.812 -3.906,-8.715 -8.719,-8.715 -4.816,0 -8.719,3.903 -8.719,8.715 0,4.817 3.903,8.719 8.719,8.719"
         style="fill:#231f20;fill-opacity:1;fill-rule:evenodd;stroke:none"
         id="path198" />
      <path
         d="m 167.289,478 c 4.813,0 8.719,-3.902 8.719,-8.719 0,-4.812 -3.906,-8.715 -8.719,-8.715 -4.816,0 -8.719,3.903 -8.719,8.715 0,4.817 3.903,8.719 8.719,8.719 z"
         style="fill:none;stroke:#231f20;stroke-width:14.1732;stroke-linecap:butt;stroke-linejoin:miter;stroke-miterlimit:2.61313;stroke-dasharray:none;stroke-opacity:1"
         id="path200" />
      <path
         d="m 1365.39,831.23 c 4.84,0 8.75,-3.917 8.75,-8.75 0,-4.835 -3.91,-8.753 -8.75,-8.753 -4.83,0 -8.75,3.918 -8.75,8.753 0,4.833 3.92,8.75 8.75,8.75"
         style="fill:#231f20;fill-opacity:1;fill-rule:evenodd;stroke:none"
         id="path202" />
      <path
         d="m 1365.39,831.23 c 4.84,0 8.75,-3.917 8.75,-8.75 0,-4.835 -3.91,-8.753 -8.75,-8.753 -4.83,0 -8.75,3.918 -8.75,8.753 0,4.833 3.92,8.75 8.75,8.75 z"
         style="fill:none;stroke:#231f20;stroke-width:14.1732;stroke-linecap:butt;stroke-linejoin:miter;stroke-miterlimit:2.61313;stroke-dasharray:none;stroke-opacity:1"
         id="path204" />
      <path
         d="m 319.668,829.113 c 4.812,0 8.715,-3.902 8.715,-8.715 0,-4.816 -3.903,-8.718 -8.715,-8.718 -4.816,0 -8.723,3.902 -8.723,8.718 0,4.813 3.907,8.715 8.723,8.715"
         style="fill:#231f20;fill-opacity:1;fill-rule:evenodd;stroke:none"
         id="path206" />
      <path
         d="m 319.668,829.113 c 4.812,0 8.715,-3.902 8.715,-8.715 0,-4.816 -3.903,-8.718 -8.715,-8.718 -4.816,0 -8.723,3.902 -8.723,8.718 0,4.813 3.907,8.715 8.723,8.715 z"
         style="fill:none;stroke:#231f20;stroke-width:14.1732;stroke-linecap:butt;stroke-linejoin:miter;stroke-miterlimit:2.61313;stroke-dasharray:none;stroke-opacity:1"
         id="path208" />
      <path
         d="m 1538.64,306.801 c 4.84,0 8.76,-3.918 8.76,-8.75 0,-4.832 -3.92,-8.75 -8.76,-8.75 -4.83,0 -8.75,3.918 -8.75,8.75 0,4.832 3.92,8.75 8.75,8.75"
         style="fill:#231f20;fill-opacity:1;fill-rule:evenodd;stroke:none"
         id="path210" />
      <path
         d="m 1538.64,306.801 c 4.84,0 8.76,-3.918 8.76,-8.75 0,-4.832 -3.92,-8.75 -8.76,-8.75 -4.83,0 -8.75,3.918 -8.75,8.75 0,4.832 3.92,8.75 8.75,8.75 z"
         style="fill:none;stroke:#231f20;stroke-width:14.1732;stroke-linecap:butt;stroke-linejoin:miter;stroke-miterlimit:2.61313;stroke-dasharray:none;stroke-opacity:1"
         id="path212" />
      <path
         d="m 265.504,306.637 c 4.812,0 8.715,-3.903 8.715,-8.719 0,-4.813 -3.903,-8.715 -8.715,-8.715 -4.816,0 -8.723,3.902 -8.723,8.715 0,4.816 3.907,8.719 8.723,8.719"
         style="fill:#231f20;fill-opacity:1;fill-rule:evenodd;stroke:none"
         id="path214" />
      <path
         d="m 265.504,306.637 c 4.812,0 8.715,-3.903 8.715,-8.719 0,-4.813 -3.903,-8.715 -8.715,-8.715 -4.816,0 -8.723,3.902 -8.723,8.715 0,4.816 3.907,8.719 8.723,8.719 z"
         style="fill:none;stroke:#231f20;stroke-width:14.1732;stroke-linecap:butt;stroke-linejoin:miter;stroke-miterlimit:2.61313;stroke-dasharray:none;stroke-opacity:1"
         id="path216" />
      <path
         d="m 1538.27,657.586 c 4.84,0 8.75,-3.918 8.75,-8.75 0,-4.836 -3.91,-8.754 -8.75,-8.754 -4.83,0 -8.75,3.918 -8.75,8.754 0,4.832 3.92,8.75 8.75,8.75"
         style="fill:#231f20;fill-opacity:1;fill-rule:evenodd;stroke:none"
         id="path218" />
      <path
         d="m 1538.27,657.586 c 4.84,0 8.75,-3.918 8.75,-8.75 0,-4.836 -3.91,-8.754 -8.75,-8.754 -4.83,0 -8.75,3.918 -8.75,8.754 0,4.832 3.92,8.75 8.75,8.75 z"
         style="fill:none;stroke:#231f20;stroke-width:14.1732;stroke-linecap:butt;stroke-linejoin:miter;stroke-miterlimit:2.61313;stroke-dasharray:none;stroke-opacity:1"
         id="path220" />
      <path
         d="m 415.363,656.117 c 4.817,0 8.719,-3.902 8.719,-8.719 0,-4.816 -3.902,-8.718 -8.719,-8.718 -4.816,0 -8.718,3.902 -8.718,8.718 0,4.817 3.902,8.719 8.718,8.719"
         style="fill:#231f20;fill-opacity:1;fill-rule:evenodd;stroke:none"
         id="path222" />
      <path
         d="m 415.363,656.117 c 4.817,0 8.719,-3.902 8.719,-8.719 0,-4.816 -3.902,-8.718 -8.719,-8.718 -4.816,0 -8.718,3.902 -8.718,8.718 0,4.817 3.902,8.719 8.718,8.719 z"
         style="fill:none;stroke:#231f20;stroke-width:14.1732;stroke-linecap:butt;stroke-linejoin:miter;stroke-miterlimit:2.61313;stroke-dasharray:none;stroke-opacity:1"
         id="path224" />
      <path
         d="m 1537.41,479.953 c 4.83,0 8.75,-3.918 8.75,-8.754 0,-4.832 -3.92,-8.75 -8.75,-8.75 -4.84,0 -8.75,3.918 -8.75,8.75 0,4.836 3.91,8.754 8.75,8.754"
         style="fill:#231f20;fill-opacity:1;fill-rule:evenodd;stroke:none"
         id="path226" />
      <path
         d="m 1537.41,479.953 c 4.83,0 8.75,-3.918 8.75,-8.754 0,-4.832 -3.92,-8.75 -8.75,-8.75 -4.84,0 -8.75,3.918 -8.75,8.75 0,4.836 3.91,8.754 8.75,8.754 z"
         style="fill:none;stroke:#231f20;stroke-width:14.1732;stroke-linecap:butt;stroke-linejoin:miter;stroke-miterlimit:2.61313;stroke-dasharray:none;stroke-opacity:1"
         id="path228" />
      <path
         d="m 337.969,479.145 c 4.812,0 8.719,-3.903 8.719,-8.719 0,-4.817 -3.907,-8.719 -8.719,-8.719 -4.817,0 -8.723,3.902 -8.723,8.719 0,4.816 3.906,8.719 8.723,8.719"
         style="fill:#231f20;fill-opacity:1;fill-rule:evenodd;stroke:none"
         id="path230" />
      <path
         d="m 337.969,479.145 c 4.812,0 8.719,-3.903 8.719,-8.719 0,-4.817 -3.907,-8.719 -8.719,-8.719 -4.817,0 -8.723,3.902 -8.723,8.719 0,4.816 3.906,8.719 8.723,8.719 z"
         style="fill:none;stroke:#231f20;stroke-width:14.1732;stroke-linecap:butt;stroke-linejoin:miter;stroke-miterlimit:2.61313;stroke-dasharray:none;stroke-opacity:1"
         id="path232" />
      <path
         d="m 1536.71,832.379 c 4.84,0 8.75,-3.918 8.75,-8.75 0,-4.836 -3.91,-8.754 -8.75,-8.754 -4.83,0 -8.75,3.918 -8.75,8.754 0,4.832 3.92,8.75 8.75,8.75"
         style="fill:#231f20;fill-opacity:1;fill-rule:evenodd;stroke:none"
         id="path234" />
      <path
         d="m 1536.71,832.379 c 4.84,0 8.75,-3.918 8.75,-8.75 0,-4.836 -3.91,-8.754 -8.75,-8.754 -4.83,0 -8.75,3.918 -8.75,8.754 0,4.832 3.92,8.75 8.75,8.75 z"
         style="fill:none;stroke:#231f20;stroke-width:14.1732;stroke-linecap:butt;stroke-linejoin:miter;stroke-miterlimit:2.61313;stroke-dasharray:none;stroke-opacity:1"
         id="path236" />
      <path
         d="m 490.344,830.262 c 4.816,0 8.719,-3.907 8.719,-8.723 0,-4.812 -3.903,-8.715 -8.719,-8.715 -4.817,0 -8.719,3.903 -8.719,8.715 0,4.816 3.902,8.723 8.719,8.723"
         style="fill:#231f20;fill-opacity:1;fill-rule:evenodd;stroke:none"
         id="path238" />
      <path
         d="m 490.344,830.262 c 4.816,0 8.719,-3.907 8.719,-8.723 0,-4.812 -3.903,-8.715 -8.719,-8.715 -4.817,0 -8.719,3.903 -8.719,8.715 0,4.816 3.902,8.723 8.719,8.723 z"
         style="fill:none;stroke:#231f20;stroke-width:14.1732;stroke-linecap:butt;stroke-linejoin:miter;stroke-miterlimit:2.61313;stroke-dasharray:none;stroke-opacity:1"
         id="path240" />
      <path
         d="m 1714.77,308.141 c 4.83,0 8.75,-3.918 8.75,-8.75 0,-4.832 -3.92,-8.75 -8.75,-8.75 -4.83,0 -8.75,3.918 -8.75,8.75 0,4.832 3.92,8.75 8.75,8.75"
         style="fill:#231f20;fill-opacity:1;fill-rule:evenodd;stroke:none"
         id="path242" />
      <path
         d="m 1714.77,308.141 c 4.83,0 8.75,-3.918 8.75,-8.75 0,-4.832 -3.92,-8.75 -8.75,-8.75 -4.83,0 -8.75,3.918 -8.75,8.75 0,4.832 3.92,8.75 8.75,8.75 z"
         style="fill:none;stroke:#231f20;stroke-width:14.1732;stroke-linecap:butt;stroke-linejoin:miter;stroke-miterlimit:2.61313;stroke-dasharray:none;stroke-opacity:1"
         id="path244" />
      <path
         d="m 440.965,307.973 c 4.816,0 8.723,-3.903 8.723,-8.715 0,-4.817 -3.907,-8.719 -8.723,-8.719 -4.813,0 -8.715,3.902 -8.715,8.719 0,4.812 3.902,8.715 8.715,8.715"
         style="fill:#231f20;fill-opacity:1;fill-rule:evenodd;stroke:none"
         id="path246" />
      <path
         d="m 440.965,307.973 c 4.816,0 8.723,-3.903 8.723,-8.715 0,-4.817 -3.907,-8.719 -8.723,-8.719 -4.813,0 -8.715,3.902 -8.715,8.719 0,4.812 3.902,8.715 8.715,8.715 z"
         style="fill:none;stroke:#231f20;stroke-width:14.1732;stroke-linecap:butt;stroke-linejoin:miter;stroke-miterlimit:2.61313;stroke-dasharray:none;stroke-opacity:1"
         id="path248" />
      <path
         d="m 1714.39,658.926 c 4.84,0 8.75,-3.918 8.75,-8.75 0,-4.836 -3.91,-8.75 -8.75,-8.75 -4.83,0 -8.75,3.914 -8.75,8.75 0,4.832 3.92,8.75 8.75,8.75"
         style="fill:#231f20;fill-opacity:1;fill-rule:evenodd;stroke:none"
         id="path250" />
      <path
         d="m 1714.39,658.926 c 4.84,0 8.75,-3.918 8.75,-8.75 0,-4.836 -3.91,-8.75 -8.75,-8.75 -4.83,0 -8.75,3.914 -8.75,8.75 0,4.832 3.92,8.75 8.75,8.75 z"
         style="fill:none;stroke:#231f20;stroke-width:14.1732;stroke-linecap:butt;stroke-linejoin:miter;stroke-miterlimit:2.61313;stroke-dasharray:none;stroke-opacity:1"
         id="path252" />
      <path
         d="m 590.832,657.453 c 4.813,0 8.715,-3.902 8.715,-8.719 0,-4.816 -3.902,-8.714 -8.715,-8.714 -4.816,0 -8.719,3.898 -8.719,8.714 0,4.817 3.903,8.719 8.719,8.719"
         style="fill:#231f20;fill-opacity:1;fill-rule:evenodd;stroke:none"
         id="path254" />
      <path
         d="m 590.832,657.453 c 4.813,0 8.715,-3.902 8.715,-8.719 0,-4.816 -3.902,-8.714 -8.715,-8.714 -4.816,0 -8.719,3.898 -8.719,8.714 0,4.817 3.903,8.719 8.719,8.719 z"
         style="fill:none;stroke:#231f20;stroke-width:14.1732;stroke-linecap:butt;stroke-linejoin:miter;stroke-miterlimit:2.61313;stroke-dasharray:none;stroke-opacity:1"
         id="path256" />
      <path
         d="m 1713.53,481.293 c 4.83,0 8.75,-3.918 8.75,-8.75 0,-4.836 -3.92,-8.75 -8.75,-8.75 -4.83,0 -8.75,3.914 -8.75,8.75 0,4.832 3.92,8.75 8.75,8.75"
         style="fill:#231f20;fill-opacity:1;fill-rule:evenodd;stroke:none"
         id="path258" />
      <path
         d="m 1713.53,481.293 c 4.83,0 8.75,-3.918 8.75,-8.75 0,-4.836 -3.92,-8.75 -8.75,-8.75 -4.83,0 -8.75,3.914 -8.75,8.75 0,4.832 3.92,8.75 8.75,8.75 z"
         style="fill:none;stroke:#231f20;stroke-width:14.1732;stroke-linecap:butt;stroke-linejoin:miter;stroke-miterlimit:2.61313;stroke-dasharray:none;stroke-opacity:1"
         id="path260" />
      <path
         d="m 513.434,480.48 c 4.812,0 8.718,-3.906 8.718,-8.718 0,-4.817 -3.906,-8.719 -8.718,-8.719 -4.817,0 -8.719,3.902 -8.719,8.719 0,4.812 3.902,8.718 8.719,8.718"
         style="fill:#231f20;fill-opacity:1;fill-rule:evenodd;stroke:none"
         id="path262" />
      <path
         d="m 513.434,480.48 c 4.812,0 8.718,-3.906 8.718,-8.718 0,-4.817 -3.906,-8.719 -8.718,-8.719 -4.817,0 -8.719,3.902 -8.719,8.719 0,4.812 3.902,8.718 8.719,8.718 z"
         style="fill:none;stroke:#231f20;stroke-width:14.1732;stroke-linecap:butt;stroke-linejoin:miter;stroke-miterlimit:2.61313;stroke-dasharray:none;stroke-opacity:1"
         id="path264" />
      <path
         d="m 1714.24,833.953 c 4.83,0 8.75,-3.918 8.75,-8.75 0,-4.832 -3.92,-8.75 -8.75,-8.75 -4.83,0 -8.75,3.918 -8.75,8.75 0,4.832 3.92,8.75 8.75,8.75"
         style="fill:#231f20;fill-opacity:1;fill-rule:evenodd;stroke:none"
         id="path266" />
      <path
         d="m 1714.24,833.953 c 4.83,0 8.75,-3.918 8.75,-8.75 0,-4.832 -3.92,-8.75 -8.75,-8.75 -4.83,0 -8.75,3.918 -8.75,8.75 0,4.832 3.92,8.75 8.75,8.75 z"
         style="fill:none;stroke:#231f20;stroke-width:14.1732;stroke-linecap:butt;stroke-linejoin:miter;stroke-miterlimit:2.61313;stroke-dasharray:none;stroke-opacity:1"
         id="path268" />
      <path
         d="m 665.813,831.594 c 4.812,0 8.718,-3.903 8.718,-8.719 0,-4.812 -3.906,-8.715 -8.718,-8.715 -4.817,0 -8.723,3.903 -8.723,8.715 0,4.816 3.906,8.719 8.723,8.719"
         style="fill:#231f20;fill-opacity:1;fill-rule:evenodd;stroke:none"
         id="path270" />
      <path
         d="m 665.813,831.594 c 4.812,0 8.718,-3.903 8.718,-8.719 0,-4.812 -3.906,-8.715 -8.718,-8.715 -4.817,0 -8.723,3.903 -8.723,8.715 0,4.816 3.906,8.719 8.723,8.719 z"
         style="fill:none;stroke:#231f20;stroke-width:14.1732;stroke-linecap:butt;stroke-linejoin:miter;stroke-miterlimit:2.61313;stroke-dasharray:none;stroke-opacity:1"
         id="path272" />
      <path
         d="m 1890.89,305.984 c 4.83,0 8.75,-3.921 8.75,-8.75 0,-4.836 -3.92,-8.754 -8.75,-8.754 -4.83,0 -8.75,3.918 -8.75,8.754 0,4.829 3.92,8.75 8.75,8.75"
         style="fill:#231f20;fill-opacity:1;fill-rule:evenodd;stroke:none"
         id="path274" />
      <path
         d="m 1890.89,305.984 c 4.83,0 8.75,-3.921 8.75,-8.75 0,-4.836 -3.92,-8.754 -8.75,-8.754 -4.83,0 -8.75,3.918 -8.75,8.754 0,4.829 3.92,8.75 8.75,8.75 z"
         style="fill:none;stroke:#231f20;stroke-width:14.1732;stroke-linecap:butt;stroke-linejoin:miter;stroke-miterlimit:2.61313;stroke-dasharray:none;stroke-opacity:1"
         id="path276" />
      <path
         d="m 616.434,305.82 c 4.816,0 8.718,-3.902 8.718,-8.715 0,-4.816 -3.902,-8.718 -8.718,-8.718 -4.817,0 -8.719,3.902 -8.719,8.718 0,4.813 3.902,8.715 8.719,8.715"
         style="fill:#231f20;fill-opacity:1;fill-rule:evenodd;stroke:none"
         id="path278" />
      <path
         d="m 616.434,305.82 c 4.816,0 8.718,-3.902 8.718,-8.715 0,-4.816 -3.902,-8.718 -8.718,-8.718 -4.817,0 -8.719,3.902 -8.719,8.718 0,4.813 3.902,8.715 8.719,8.715 z"
         style="fill:none;stroke:#231f20;stroke-width:14.1732;stroke-linecap:butt;stroke-linejoin:miter;stroke-miterlimit:2.61313;stroke-dasharray:none;stroke-opacity:1"
         id="path280" />
      <path
         d="m 1890.52,656.766 c 4.83,0 8.75,-3.918 8.75,-8.75 0,-4.832 -3.92,-8.75 -8.75,-8.75 -4.84,0 -8.75,3.918 -8.75,8.75 0,4.832 3.91,8.75 8.75,8.75"
         style="fill:#231f20;fill-opacity:1;fill-rule:evenodd;stroke:none"
         id="path282" />
      <path
         d="m 1890.52,656.766 c 4.83,0 8.75,-3.918 8.75,-8.75 0,-4.832 -3.92,-8.75 -8.75,-8.75 -4.84,0 -8.75,3.918 -8.75,8.75 0,4.832 3.91,8.75 8.75,8.75 z"
         style="fill:none;stroke:#231f20;stroke-width:14.1732;stroke-linecap:butt;stroke-linejoin:miter;stroke-miterlimit:2.61313;stroke-dasharray:none;stroke-opacity:1"
         id="path284" />
      <path
         d="m 766.297,655.305 c 4.816,0 8.719,-3.907 8.719,-8.723 0,-4.816 -3.903,-8.719 -8.719,-8.719 -4.813,0 -8.719,3.903 -8.719,8.719 0,4.816 3.906,8.723 8.719,8.723"
         style="fill:#231f20;fill-opacity:1;fill-rule:evenodd;stroke:none"
         id="path286" />
      <path
         d="m 766.297,655.305 c 4.816,0 8.719,-3.907 8.719,-8.723 0,-4.816 -3.903,-8.719 -8.719,-8.719 -4.813,0 -8.719,3.903 -8.719,8.719 0,4.816 3.906,8.723 8.719,8.723 z"
         style="fill:none;stroke:#231f20;stroke-width:14.1732;stroke-linecap:butt;stroke-linejoin:miter;stroke-miterlimit:2.61313;stroke-dasharray:none;stroke-opacity:1"
         id="path288" />
      <path
         d="m 1889.65,479.133 c 4.83,0 8.75,-3.918 8.75,-8.75 0,-4.836 -3.92,-8.75 -8.75,-8.75 -4.83,0 -8.75,3.914 -8.75,8.75 0,4.832 3.92,8.75 8.75,8.75"
         style="fill:#231f20;fill-opacity:1;fill-rule:evenodd;stroke:none"
         id="path290" />
      <path
         d="m 1889.65,479.133 c 4.83,0 8.75,-3.918 8.75,-8.75 0,-4.836 -3.92,-8.75 -8.75,-8.75 -4.83,0 -8.75,3.914 -8.75,8.75 0,4.832 3.92,8.75 8.75,8.75 z"
         style="fill:none;stroke:#231f20;stroke-width:14.1732;stroke-linecap:butt;stroke-linejoin:miter;stroke-miterlimit:2.61313;stroke-dasharray:none;stroke-opacity:1"
         id="path292" />
      <path
         d="m 688.898,478.328 c 4.817,0 8.719,-3.902 8.719,-8.719 0,-4.816 -3.902,-8.718 -8.719,-8.718 -4.812,0 -8.714,3.902 -8.714,8.718 0,4.817 3.902,8.719 8.714,8.719"
         style="fill:#231f20;fill-opacity:1;fill-rule:evenodd;stroke:none"
         id="path294" />
      <path
         d="m 688.898,478.328 c 4.817,0 8.719,-3.902 8.719,-8.719 0,-4.816 -3.902,-8.718 -8.719,-8.718 -4.812,0 -8.714,3.902 -8.714,8.718 0,4.817 3.902,8.719 8.714,8.719 z"
         style="fill:none;stroke:#231f20;stroke-width:14.1732;stroke-linecap:butt;stroke-linejoin:miter;stroke-miterlimit:2.61313;stroke-dasharray:none;stroke-opacity:1"
         id="path296" />
      <path
         d="m 1888.95,831.559 c 4.84,0 8.76,-3.918 8.76,-8.75 0,-4.832 -3.92,-8.75 -8.76,-8.75 -4.83,0 -8.75,3.918 -8.75,8.75 0,4.832 3.92,8.75 8.75,8.75"
         style="fill:#231f20;fill-opacity:1;fill-rule:evenodd;stroke:none"
         id="path298" />
      <path
         d="m 1888.95,831.559 c 4.84,0 8.76,-3.918 8.76,-8.75 0,-4.832 -3.92,-8.75 -8.76,-8.75 -4.83,0 -8.75,3.918 -8.75,8.75 0,4.832 3.92,8.75 8.75,8.75 z"
         style="fill:none;stroke:#231f20;stroke-width:14.1732;stroke-linecap:butt;stroke-linejoin:miter;stroke-miterlimit:2.61313;stroke-dasharray:none;stroke-opacity:1"
         id="path300" />
      <path
         d="m 841.277,829.445 c 4.813,0 8.719,-3.906 8.719,-8.722 0,-4.813 -3.906,-8.715 -8.719,-8.715 -4.816,0 -8.718,3.902 -8.718,8.715 0,4.816 3.902,8.722 8.718,8.722"
         style="fill:#231f20;fill-opacity:1;fill-rule:evenodd;stroke:none"
         id="path302" />
      <path
         d="m 841.277,829.445 c 4.813,0 8.719,-3.906 8.719,-8.722 0,-4.813 -3.906,-8.715 -8.719,-8.715 -4.816,0 -8.718,3.902 -8.718,8.715 0,4.816 3.902,8.722 8.718,8.722 z"
         style="fill:none;stroke:#231f20;stroke-width:14.1732;stroke-linecap:butt;stroke-linejoin:miter;stroke-miterlimit:2.61313;stroke-dasharray:none;stroke-opacity:1"
         id="path304" />
      <path
         d="m 532.84,512.738 c 13.98,-10.961 23.461,-22.34 24.625,-41.011"
         style="fill:none;stroke:#f47216;stroke-width:5.6693;stroke-linecap:butt;stroke-linejoin:miter;stroke-miterlimit:2.61313;stroke-dasharray:none;stroke-opacity:1"
         id="path306" />
      <path
         d="m 653.629,470.945 c 1.926,-14.84 7.746,-26.367 23.551,-31.957"
         style="fill:none;stroke:#f47216;stroke-width:5.6693;stroke-linecap:butt;stroke-linejoin:miter;stroke-miterlimit:2.61313;stroke-dasharray:none;stroke-opacity:1"
         id="path308" />
    </g>
  </g>
</svg>
