<?xml version="1.0" encoding="UTF-8" standalone="no"?>
<!-- Created with Inkscape (http://www.inkscape.org/) -->

<svg
   version="1.1"
   id="svg2"
   width="289.33334"
   height="166.66667"
   viewBox="0 0 289.33334 166.66667"
   xmlns="http://www.w3.org/2000/svg"
   xmlns:svg="http://www.w3.org/2000/svg">
  <defs
     id="defs6" />
  <g
     id="g8"
     transform="matrix(1.3333333,0,0,-1.3333333,0,166.66667)">
    <g
       id="g10"
       transform="scale(0.1)">
      <path
         d="m 582.098,255.957 c 15.574,-14.625 22.965,-32.902 19.468,-56.012"
         style="fill:none;stroke:#231f20;stroke-width:5.0003;stroke-linecap:butt;stroke-linejoin:miter;stroke-miterlimit:2.61313;stroke-dasharray:none;stroke-opacity:1"
         id="path12" />
      <path
         d="m 524.82,201.688 218.258,202.57"
         style="fill:none;stroke:#f47216;stroke-width:8.4983;stroke-linecap:butt;stroke-linejoin:miter;stroke-miterlimit:2.61313;stroke-dasharray:none;stroke-opacity:1"
         id="path14" />
      <path
         d="m 761.977,421.793 -28.036,-8.195 17.77,-19.153 z"
         style="fill:#f47216;fill-opacity:1;fill-rule:evenodd;stroke:none"
         id="path16" />
      <path
         d="m 1791.41,947.023 81.11,75.277"
         style="fill:none;stroke:#ed1c24;stroke-width:8.4983;stroke-linecap:butt;stroke-linejoin:miter;stroke-miterlimit:2.61313;stroke-dasharray:none;stroke-opacity:1"
         id="path18" />
      <path
         d="m 1891.41,1039.84 -28.03,-8.2 17.77,-19.15 z"
         style="fill:#ed1c24;fill-opacity:1;fill-rule:evenodd;stroke:none"
         id="path20" />
      <path
         d="M 471.5,722.152 1068.68,127.406"
         style="fill:none;stroke:#0994dc;stroke-width:8.4983;stroke-linecap:butt;stroke-linejoin:miter;stroke-miterlimit:2.61313;stroke-dasharray:none;stroke-opacity:1"
         id="path22" />
      <path
         d="M 1427.98,1188.86 2020.26,598.988"
         style="fill:none;stroke:#0994dc;stroke-width:8.4983;stroke-linecap:butt;stroke-linejoin:miter;stroke-miterlimit:2.61313;stroke-dasharray:none;stroke-opacity:1"
         id="path24" />
      <path
         d="M 953.309,1185.88 2024.35,119.191"
         style="fill:none;stroke:#0994dc;stroke-width:8.4983;stroke-linecap:butt;stroke-linejoin:miter;stroke-miterlimit:2.61313;stroke-dasharray:none;stroke-opacity:1"
         id="path26" />
      <path
         d="M 479.078,1185.98 1547.26,122.148"
         style="fill:none;stroke:#0994dc;stroke-width:8.4983;stroke-linecap:butt;stroke-linejoin:miter;stroke-miterlimit:2.61313;stroke-dasharray:none;stroke-opacity:1"
         id="path28" />
      <path
         d="M 472.336,254.098 604.285,122.684"
         style="fill:none;stroke:#0994dc;stroke-width:8.4983;stroke-linecap:butt;stroke-linejoin:miter;stroke-miterlimit:2.61313;stroke-dasharray:none;stroke-opacity:1"
         id="path30" />
      <path
         d="m 1900.17,1188.86 131.95,-131.41"
         style="fill:none;stroke:#0994dc;stroke-width:8.4983;stroke-linecap:butt;stroke-linejoin:miter;stroke-miterlimit:2.61313;stroke-dasharray:none;stroke-opacity:1"
         id="path32" />
      <g
         id="g34"
         transform="scale(10)">
        <text
           xml:space="preserve"
           transform="matrix(1,0,0,-1,97.1395,87.1461)"
           style="font-style:italic;font-variant:normal;font-weight:normal;font-size:8.99986px;font-family:Arial;-inkscape-font-specification:ArialMT-NormalItalic;writing-mode:lr-tb;fill:#231f20;fill-opacity:1;fill-rule:nonzero;stroke:none"
           id="text38"><tspan
             x="0"
             y="0"
             id="tspan36">d</tspan></text>
        <text
           xml:space="preserve"
           transform="matrix(1,0,0,-1,102.14458,85.3461)"
           style="font-style:italic;font-variant:normal;font-weight:normal;font-size:4.49993px;font-family:Arial;-inkscape-font-specification:ArialMT-NormalItalic;writing-mode:lr-tb;fill:#231f20;fill-opacity:1;fill-rule:nonzero;stroke:none"
           id="text42"><tspan
             x="0 2.501961 4.7519259"
             y="0"
             id="tspan40">hkl</tspan></text>
        <text
           xml:space="preserve"
           transform="matrix(1,0,0,-1,33.39538,13.8008)"
           style="font-variant:normal;font-weight:bold;font-size:7.99981px;font-family:Calibri;-inkscape-font-specification:Calibri-Bold;writing-mode:lr-tb;fill:#231f20;fill-opacity:1;fill-rule:nonzero;stroke:none"
           id="text46"><tspan
             x="0"
             y="0"
             id="tspan44">r</tspan></text>
        <text
           xml:space="preserve"
           transform="matrix(1,0,0,-1,37.64733,13.8008)"
           style="font-variant:normal;font-weight:normal;font-size:7.99981px;font-family:Calibri;-inkscape-font-specification:Calibri;writing-mode:lr-tb;fill:#231f20;fill-opacity:1;fill-rule:nonzero;stroke:none"
           id="text50"><tspan
             x="0 5.3917999"
             y="0"
             id="tspan48">=0</tspan></text>
        <text
           xml:space="preserve"
           transform="matrix(1,0,0,-1,70.22273,7.75978)"
           style="font-style:italic;font-variant:normal;font-weight:normal;font-size:7.99981px;font-family:Calibri;-inkscape-font-specification:Calibri-NormalItalic;writing-mode:lr-tb;fill:#231f20;fill-opacity:1;fill-rule:nonzero;stroke:none"
           id="text54"><tspan
             x="0 7.6023474"
             y="0"
             id="tspan52">ah</tspan></text>
        <text
           xml:space="preserve"
           transform="matrix(1,0,0,-1,74.73601,7.75978)"
           style="font-variant:normal;font-weight:normal;font-size:7.99981px;font-family:Calibri;-inkscape-font-specification:Calibri;writing-mode:lr-tb;fill:#231f20;fill-opacity:1;fill-rule:nonzero;stroke:none"
           id="text58"><tspan
             x="0"
             y="0"
             id="tspan56">/</tspan></text>
        <text
           xml:space="preserve"
           transform="matrix(1,0,0,-1,148.91261,39.20978)"
           style="font-style:italic;font-variant:normal;font-weight:normal;font-size:7.99981px;font-family:Calibri;-inkscape-font-specification:Calibri-NormalItalic;writing-mode:lr-tb;fill:#231f20;fill-opacity:1;fill-rule:nonzero;stroke:none"
           id="text62"><tspan
             x="0 7.202733"
             y="0"
             id="tspan60">bk</tspan></text>
        <text
           xml:space="preserve"
           transform="matrix(1,0,0,-1,153.02589,39.20978)"
           style="font-variant:normal;font-weight:normal;font-size:7.99981px;font-family:Calibri;-inkscape-font-specification:Calibri;writing-mode:lr-tb;fill:#231f20;fill-opacity:1;fill-rule:nonzero;stroke:none"
           id="text66"><tspan
             x="0"
             y="0"
             id="tspan64">/</tspan></text>
        <text
           xml:space="preserve"
           transform="matrix(1,0,0,-1,211.72709,17.43708)"
           style="font-variant:normal;font-weight:bold;font-size:8.99986px;font-family:Arial;-inkscape-font-specification:ArialMT-Bold;writing-mode:lr-tb;fill:#231f20;fill-opacity:1;fill-rule:nonzero;stroke:none"
           id="text70"><tspan
             x="0"
             y="0"
             id="tspan68">a</tspan></text>
      </g>
      <g
         id="g72"
         transform="scale(10)">
        <text
           xml:space="preserve"
           transform="matrix(1,0,0,-1,61.0137,36.7531)"
           style="font-variant:normal;font-weight:bold;font-size:8.99986px;font-family:Arial;-inkscape-font-specification:ArialMT-Bold;writing-mode:lr-tb;fill:#f47216;fill-opacity:1;fill-rule:nonzero;stroke:none"
           id="text76"><tspan
             x="0"
             y="0"
             id="tspan74">d</tspan></text>
      </g>
      <g
         id="g78"
         transform="scale(10)">
        <text
           xml:space="preserve"
           transform="matrix(1,0,0,-1,186.453,92.5363)"
           style="font-variant:normal;font-weight:bold;font-size:8.99986px;font-family:Arial;-inkscape-font-specification:ArialMT-Bold;writing-mode:lr-tb;fill:#ed1c24;fill-opacity:1;fill-rule:nonzero;stroke:none"
           id="text82"><tspan
             x="0"
             y="0"
             id="tspan80">n</tspan></text>
      </g>
      <g
         id="g84"
         transform="scale(10)">
        <text
           xml:space="preserve"
           transform="matrix(1,0,0,-1,62.7137,23.066)"
           style="font-style:italic;font-variant:normal;font-weight:normal;font-size:7.99981px;font-family:Arial;-inkscape-font-specification:ArialMT-NormalItalic;writing-mode:lr-tb;fill:#231f20;fill-opacity:1;fill-rule:nonzero;stroke:none"
           id="text88"><tspan
             x="0"
             y="0"
             id="tspan86">φ</tspan></text>
        <text
           xml:space="preserve"
           transform="matrix(1,0,0,-1,57.2219,118.5543)"
           style="font-variant:normal;font-weight:bold;font-size:8.99986px;font-family:Arial;-inkscape-font-specification:ArialMT-Bold;writing-mode:lr-tb;fill:#231f20;fill-opacity:1;fill-rule:nonzero;stroke:none"
           id="text92"><tspan
             x="0"
             y="0"
             id="tspan90">b</tspan></text>
      </g>
      <g
         id="g94"
         transform="scale(10)">
        <text
           xml:space="preserve"
           transform="matrix(1,0,0,-1,40.0691,86.1711)"
           style="font-variant:normal;font-weight:bold;font-size:8.99986px;font-family:Calibri;-inkscape-font-specification:Calibri-Bold;writing-mode:lr-tb;fill:#ed1c24;fill-opacity:1;fill-rule:nonzero;stroke:none"
           id="text98"><tspan
             x="0"
             y="0"
             id="tspan96">G</tspan></text>
        <text
           xml:space="preserve"
           transform="matrix(1,0,0,-1,-0.8118,51.1149)"
           style="font-variant:normal;font-weight:normal;font-size:7.99981px;font-family:Calibri;-inkscape-font-specification:Calibri;writing-mode:lr-tb;fill:#ed1c24;fill-opacity:1;fill-rule:nonzero;stroke:none"
           id="text102"><tspan
             x="0 8.3808651 14.032427 18.016333 19.824289 28.540241"
             y="0"
             id="tspan100">||= 2/</tspan></text>
        <text
           xml:space="preserve"
           transform="matrix(1,0,0,-1,2.47218,51.1149)"
           style="font-variant:normal;font-weight:bold;font-size:7.99981px;font-family:Calibri;-inkscape-font-specification:Calibri-Bold;writing-mode:lr-tb;fill:#ed1c24;fill-opacity:1;fill-rule:nonzero;stroke:none"
           id="text106"><tspan
             x="0"
             y="0"
             id="tspan104">G</tspan></text>
        <text
           xml:space="preserve"
           transform="matrix(1,0,0,-1,23.06748,51.1149)"
           style="font-style:italic;font-variant:normal;font-weight:normal;font-size:7.99981px;font-family:Calibri;-inkscape-font-specification:Calibri-NormalItalic;writing-mode:lr-tb;fill:#ed1c24;fill-opacity:1;fill-rule:nonzero;stroke:none"
           id="text110"><tspan
             x="0 7.5101576"
             y="0"
             id="tspan108">πd</tspan></text>
      </g>
      <path
         d="m 524.141,216.633 c 9.062,0 16.406,-7.336 16.406,-16.391 0,-9.051 -7.344,-16.39 -16.406,-16.39 -9.059,0 -16.407,7.339 -16.407,16.39 0,9.055 7.348,16.391 16.407,16.391"
         style="fill:#231f20;fill-opacity:1;fill-rule:evenodd;stroke:none"
         id="path112" />
      <path
         d="m 524.141,216.633 c 9.062,0 16.406,-7.336 16.406,-16.391 0,-9.051 -7.344,-16.39 -16.406,-16.39 -9.059,0 -16.407,7.339 -16.407,16.39 0,9.055 7.348,16.391 16.407,16.391 z"
         style="fill:none;stroke:#231f20;stroke-width:4.65999;stroke-linecap:butt;stroke-linejoin:miter;stroke-miterlimit:2.61313;stroke-dasharray:none;stroke-opacity:1"
         id="path114" />
      <path
         d="m 1472.8,214.379 c 9.07,0 16.41,-7.336 16.41,-16.387 0,-9.051 -7.34,-16.39 -16.41,-16.39 -9.06,0 -16.4,7.339 -16.4,16.39 0,9.051 7.34,16.387 16.4,16.387"
         style="fill:#231f20;fill-opacity:1;fill-rule:evenodd;stroke:none"
         id="path116" />
      <path
         d="m 1472.8,214.379 c 9.07,0 16.41,-7.336 16.41,-16.387 0,-9.051 -7.34,-16.39 -16.41,-16.39 -9.06,0 -16.4,7.339 -16.4,16.39 0,9.051 7.34,16.387 16.4,16.387 z"
         style="fill:none;stroke:#231f20;stroke-width:4.65999;stroke-linecap:butt;stroke-linejoin:miter;stroke-miterlimit:2.61313;stroke-dasharray:none;stroke-opacity:1"
         id="path118" />
      <path
         d="m 1944.39,217.215 c 9.06,0 16.4,-7.34 16.4,-16.391 0,-9.051 -7.34,-16.39 -16.4,-16.39 -9.07,0 -16.41,7.339 -16.41,16.39 0,9.051 7.34,16.391 16.41,16.391"
         style="fill:#231f20;fill-opacity:1;fill-rule:evenodd;stroke:none"
         id="path120" />
      <path
         d="m 1944.39,217.215 c 9.06,0 16.4,-7.34 16.4,-16.391 0,-9.051 -7.34,-16.39 -16.4,-16.39 -9.07,0 -16.41,7.339 -16.41,16.39 0,9.051 7.34,16.391 16.41,16.391 z"
         style="fill:none;stroke:#231f20;stroke-width:4.65999;stroke-linecap:butt;stroke-linejoin:miter;stroke-miterlimit:2.61313;stroke-dasharray:none;stroke-opacity:1"
         id="path122" />
      <path
         d="m 524.59,686.191 c 9.062,0 16.406,-7.339 16.406,-16.39 0,-9.051 -7.344,-16.391 -16.406,-16.391 -9.059,0 -16.406,7.34 -16.406,16.391 0,9.051 7.347,16.39 16.406,16.39"
         style="fill:#231f20;fill-opacity:1;fill-rule:evenodd;stroke:none"
         id="path124" />
      <path
         d="m 524.59,686.191 c 9.062,0 16.406,-7.339 16.406,-16.39 0,-9.051 -7.344,-16.391 -16.406,-16.391 -9.059,0 -16.406,7.34 -16.406,16.391 0,9.051 7.347,16.39 16.406,16.39 z"
         style="fill:none;stroke:#231f20;stroke-width:4.65999;stroke-linecap:butt;stroke-linejoin:miter;stroke-miterlimit:2.61313;stroke-dasharray:none;stroke-opacity:1"
         id="path126" />
      <path
         d="m 522.715,1155.9 c 9.062,0 16.406,-7.34 16.406,-16.39 0,-9.05 -7.344,-16.39 -16.406,-16.39 -9.059,0 -16.406,7.34 -16.406,16.39 0,9.05 7.347,16.39 16.406,16.39"
         style="fill:#231f20;fill-opacity:1;fill-rule:evenodd;stroke:none"
         id="path128" />
      <path
         d="m 522.715,1155.9 c 9.062,0 16.406,-7.34 16.406,-16.39 0,-9.05 -7.344,-16.39 -16.406,-16.39 -9.059,0 -16.406,7.34 -16.406,16.39 0,9.05 7.347,16.39 16.406,16.39 z"
         style="fill:none;stroke:#231f20;stroke-width:4.65999;stroke-linecap:butt;stroke-linejoin:miter;stroke-miterlimit:2.61313;stroke-dasharray:none;stroke-opacity:1"
         id="path130" />
      <path
         d="m 1473.25,683.941 c 9.06,0 16.41,-7.339 16.41,-16.39 0,-9.051 -7.35,-16.391 -16.41,-16.391 -9.06,0 -16.41,7.34 -16.41,16.391 0,9.051 7.35,16.39 16.41,16.39"
         style="fill:#231f20;fill-opacity:1;fill-rule:evenodd;stroke:none"
         id="path132" />
      <path
         d="m 1473.25,683.941 c 9.06,0 16.41,-7.339 16.41,-16.39 0,-9.051 -7.35,-16.391 -16.41,-16.391 -9.06,0 -16.41,7.34 -16.41,16.391 0,9.051 7.35,16.39 16.41,16.39 z"
         style="fill:none;stroke:#231f20;stroke-width:4.65999;stroke-linecap:butt;stroke-linejoin:miter;stroke-miterlimit:2.61313;stroke-dasharray:none;stroke-opacity:1"
         id="path134" />
      <path
         d="m 1944.84,686.773 c 9.06,0 16.4,-7.339 16.4,-16.39 0,-9.051 -7.34,-16.387 -16.4,-16.387 -9.07,0 -16.41,7.336 -16.41,16.387 0,9.051 7.34,16.39 16.41,16.39"
         style="fill:#231f20;fill-opacity:1;fill-rule:evenodd;stroke:none"
         id="path136" />
      <path
         d="m 1944.84,686.773 c 9.06,0 16.4,-7.339 16.4,-16.39 0,-9.051 -7.34,-16.387 -16.4,-16.387 -9.07,0 -16.41,7.336 -16.41,16.387 0,9.051 7.34,16.39 16.41,16.39 z"
         style="fill:none;stroke:#231f20;stroke-width:4.65999;stroke-linecap:butt;stroke-linejoin:miter;stroke-miterlimit:2.61313;stroke-dasharray:none;stroke-opacity:1"
         id="path138" />
      <path
         d="m 1479.88,1153.65 c 9.07,0 16.41,-7.34 16.41,-16.39 0,-9.05 -7.34,-16.39 -16.41,-16.39 -9.06,0 -16.4,7.34 -16.4,16.39 0,9.05 7.34,16.39 16.4,16.39"
         style="fill:#231f20;fill-opacity:1;fill-rule:evenodd;stroke:none"
         id="path140" />
      <path
         d="m 1479.88,1153.65 c 9.07,0 16.41,-7.34 16.41,-16.39 0,-9.05 -7.34,-16.39 -16.41,-16.39 -9.06,0 -16.4,7.34 -16.4,16.39 0,9.05 7.34,16.39 16.4,16.39 z"
         style="fill:none;stroke:#231f20;stroke-width:4.65999;stroke-linecap:butt;stroke-linejoin:miter;stroke-miterlimit:2.61313;stroke-dasharray:none;stroke-opacity:1"
         id="path142" />
      <path
         d="m 1948.63,1156.49 c 9.06,0 16.41,-7.34 16.41,-16.39 0,-9.05 -7.35,-16.39 -16.41,-16.39 -9.06,0 -16.41,7.34 -16.41,16.39 0,9.05 7.35,16.39 16.41,16.39"
         style="fill:#231f20;fill-opacity:1;fill-rule:evenodd;stroke:none"
         id="path144" />
      <path
         d="m 1948.63,1156.49 c 9.06,0 16.41,-7.34 16.41,-16.39 0,-9.05 -7.35,-16.39 -16.41,-16.39 -9.06,0 -16.41,7.34 -16.41,16.39 0,9.05 7.35,16.39 16.41,16.39 z"
         style="fill:none;stroke:#231f20;stroke-width:4.65999;stroke-linecap:butt;stroke-linejoin:miter;stroke-miterlimit:2.61313;stroke-dasharray:none;stroke-opacity:1"
         id="path146" />
      <path
         d="m 995.457,216.539 c 9.063,0 16.403,-7.34 16.403,-16.391 0,-9.05 -7.34,-16.39 -16.403,-16.39 -9.062,0 -16.41,7.34 -16.41,16.39 0,9.051 7.348,16.391 16.41,16.391"
         style="fill:#231f20;fill-opacity:1;fill-rule:evenodd;stroke:none"
         id="path148" />
      <path
         d="m 995.457,216.539 c 9.063,0 16.403,-7.34 16.403,-16.391 0,-9.05 -7.34,-16.39 -16.403,-16.39 -9.062,0 -16.41,7.34 -16.41,16.39 0,9.051 7.348,16.391 16.41,16.391 z"
         style="fill:none;stroke:#231f20;stroke-width:4.65999;stroke-linecap:butt;stroke-linejoin:miter;stroke-miterlimit:2.61313;stroke-dasharray:none;stroke-opacity:1"
         id="path150" />
      <path
         d="m 995.902,686.098 c 9.058,0 16.408,-7.34 16.408,-16.391 0,-9.055 -7.35,-16.391 -16.408,-16.391 -9.062,0 -16.41,7.336 -16.41,16.391 0,9.051 7.348,16.391 16.41,16.391"
         style="fill:#231f20;fill-opacity:1;fill-rule:evenodd;stroke:none"
         id="path152" />
      <path
         d="m 995.902,686.098 c 9.058,0 16.408,-7.34 16.408,-16.391 0,-9.055 -7.35,-16.391 -16.408,-16.391 -9.062,0 -16.41,7.336 -16.41,16.391 0,9.051 7.348,16.391 16.41,16.391 z"
         style="fill:none;stroke:#231f20;stroke-width:4.65999;stroke-linecap:butt;stroke-linejoin:miter;stroke-miterlimit:2.61313;stroke-dasharray:none;stroke-opacity:1"
         id="path154" />
      <path
         d="m 999.695,1155.81 c 9.065,0 16.415,-7.34 16.415,-16.39 0,-9.05 -7.35,-16.39 -16.415,-16.39 -9.058,0 -16.406,7.34 -16.406,16.39 0,9.05 7.348,16.39 16.406,16.39"
         style="fill:#231f20;fill-opacity:1;fill-rule:evenodd;stroke:none"
         id="path156" />
      <path
         d="m 999.695,1155.81 c 9.065,0 16.415,-7.34 16.415,-16.39 0,-9.05 -7.35,-16.39 -16.415,-16.39 -9.058,0 -16.406,7.34 -16.406,16.39 0,9.05 7.348,16.39 16.406,16.39 z"
         style="fill:none;stroke:#231f20;stroke-width:4.65999;stroke-linecap:butt;stroke-linejoin:miter;stroke-miterlimit:2.61313;stroke-dasharray:none;stroke-opacity:1"
         id="path158" />
      <path
         d="M 855.422,856.859 1055.17,1037.12"
         style="fill:none;stroke:#231f20;stroke-width:8.4983;stroke-linecap:butt;stroke-linejoin:miter;stroke-miterlimit:2.61313;stroke-dasharray:none;stroke-opacity:1"
         id="path160" />
      <path
         d="m 836.281,839.586 10.645,27.203 17.504,-19.398 z"
         style="fill:#231f20;fill-opacity:1;fill-rule:evenodd;stroke:none"
         id="path162" />
      <path
         d="m 1074.31,1054.39 -28.15,-7.8 17.5,-19.4 z"
         style="fill:#231f20;fill-opacity:1;fill-rule:evenodd;stroke:none"
         id="path164" />
      <path
         d="M 99.2695,607.637 364.578,847.063"
         style="fill:none;stroke:#ed1c24;stroke-width:8.4983;stroke-linecap:butt;stroke-linejoin:miter;stroke-miterlimit:2.61313;stroke-dasharray:none;stroke-opacity:1"
         id="path166" />
      <path
         d="m 383.715,864.332 -28.149,-7.801 17.504,-19.398 z"
         style="fill:#ed1c24;fill-opacity:1;fill-rule:evenodd;stroke:none"
         id="path168" />
      <path
         d="M 528.09,198.57 H 2058.01"
         style="fill:none;stroke:#231f20;stroke-width:3.3987;stroke-linecap:butt;stroke-linejoin:miter;stroke-miterlimit:2.61313;stroke-dasharray:none;stroke-opacity:1"
         id="path170" />
      <path
         d="m 2083.79,198.57 -26.13,13.063 v -26.129 z"
         style="fill:#231f20;fill-opacity:1;fill-rule:evenodd;stroke:none"
         id="path172" />
      <path
         d="M 522.934,198.57 V 1218.43"
         style="fill:none;stroke:#231f20;stroke-width:3.3987;stroke-linecap:butt;stroke-linejoin:miter;stroke-miterlimit:2.61313;stroke-dasharray:none;stroke-opacity:1"
         id="path174" />
      <path
         d="m 522.934,1244.21 -13.063,-26.12 H 536 Z"
         style="fill:#231f20;fill-opacity:1;fill-rule:evenodd;stroke:none"
         id="path176" />
      <path
         d="M 523.051,249.082 V 0.0351563"
         style="fill:none;stroke:#231f20;stroke-width:2.16;stroke-linecap:butt;stroke-linejoin:miter;stroke-miterlimit:2.61313;stroke-dasharray:2.16, 2.16;stroke-dashoffset:0;stroke-opacity:1"
         id="path178" />
      <path
         d="M 994.246,215.488 V 0.25"
         style="fill:none;stroke:#231f20;stroke-width:2.16;stroke-linecap:butt;stroke-linejoin:miter;stroke-miterlimit:2.61313;stroke-dasharray:2.16, 2.16;stroke-dashoffset:0;stroke-opacity:1"
         id="path180" />
      <path
         d="m 1472.61,667.055 h 195.73"
         style="fill:none;stroke:#231f20;stroke-width:2.16;stroke-linecap:butt;stroke-linejoin:miter;stroke-miterlimit:2.61313;stroke-dasharray:2.16, 2.16;stroke-dashoffset:0;stroke-opacity:1"
         id="path182" />
      <path
         d="M 553.375,49.2461 H 962.082"
         style="fill:none;stroke:#231f20;stroke-width:4.2491;stroke-linecap:butt;stroke-linejoin:miter;stroke-miterlimit:2.61313;stroke-dasharray:none;stroke-opacity:1"
         id="path184" />
      <path
         d="m 527.59,49.2461 26.129,13.0625 V 36.1797 Z"
         style="fill:#231f20;fill-opacity:1;fill-rule:evenodd;stroke:none"
         id="path186" />
      <path
         d="M 987.867,49.2461 961.742,62.3086 V 36.1797 Z"
         style="fill:#231f20;fill-opacity:1;fill-rule:evenodd;stroke:none"
         id="path188" />
      <path
         d="m 1631.13,233.195 v 402.45"
         style="fill:none;stroke:#231f20;stroke-width:4.2491;stroke-linecap:butt;stroke-linejoin:miter;stroke-miterlimit:2.61313;stroke-dasharray:none;stroke-opacity:1"
         id="path190" />
      <path
         d="m 1631.13,207.41 -13.07,26.129 h 26.13 z"
         style="fill:#231f20;fill-opacity:1;fill-rule:evenodd;stroke:none"
         id="path192" />
      <path
         d="m 1631.13,661.426 -13.07,-26.125 h 26.13 z"
         style="fill:#231f20;fill-opacity:1;fill-rule:evenodd;stroke:none"
         id="path194" />
    </g>
  </g>
</svg>
